<svg width="18" height="13" viewBox="0 0 18 13" fill="none" xmlns="http://www.w3.org/2000/svg">
<path fill-rule="evenodd" clip-rule="evenodd" d="M13.7084 12.8221C13.4824 12.8397 13.2639 12.7421 13.1168 12.5696C13.0541 12.496 12.9818 12.4109 12.9041 12.3188C12.6529 12.0213 12.7985 11.5644 13.1565 11.4114C13.3182 11.3422 13.4683 11.2692 13.6072 11.1942C14.0075 10.9781 13.7778 10.6702 13.3498 10.8242C12.6114 11.1246 11.9026 11.3249 11.2085 11.4394C9.79072 11.6969 8.49113 11.6254 7.38353 11.4251C6.54175 11.2677 5.81812 11.0388 5.21263 10.8099C4.87296 10.6811 4.50376 10.5238 4.13456 10.3235C4.11241 10.3092 4.09026 10.2984 4.0681 10.2877C4.04595 10.277 4.0238 10.2663 4.00165 10.2519C3.97866 10.2408 3.96462 10.2297 3.95256 10.2185C3.94584 10.2123 3.92798 10.2012 3.91994 10.1968C3.82565 10.1456 3.74891 10.2482 3.82282 10.326C4.10699 10.625 4.61083 11.0547 5.39216 11.3947C5.72533 11.5397 5.85816 11.966 5.62539 12.245C5.52985 12.3596 5.44065 12.4659 5.36476 12.5562C5.21283 12.7369 4.98534 12.8397 4.75002 12.8208C3.54536 12.7245 2.64034 12.3551 1.9893 11.9487C0.939821 11.2936 0.587556 10.0085 0.734455 8.78012C0.991632 6.62955 1.63016 4.79747 2.11949 3.64083C2.49419 2.75513 3.13115 1.99551 3.99637 1.57569C5.41777 0.886015 6.59473 0.828275 6.84643 0.824111C6.87829 0.823584 6.90805 0.837731 6.92883 0.861887C6.98241 0.924167 6.95236 1.0213 6.87352 1.04437C5.51641 1.44157 4.54944 1.93535 3.94308 2.30915C3.81789 2.38633 3.89683 2.51468 4.03118 2.45488C5.61136 1.78247 6.86665 1.59649 7.38353 1.55357L7.41664 1.54814C7.49113 1.53586 7.55723 1.52495 7.63459 1.52495C8.53544 1.4105 9.55443 1.38189 10.6177 1.49634C11.0214 1.54162 11.4336 1.60703 11.8526 1.69667C12.3578 1.80474 12.5386 1.43858 12.051 1.26768C11.9116 1.21881 11.7672 1.1707 11.6176 1.12366C11.5104 1.08993 11.4729 0.956299 11.5482 0.872869C11.5764 0.841638 11.6151 0.823467 11.6571 0.824402C11.9357 0.83059 13.081 0.897853 14.4629 1.56155C15.3492 1.98716 16.0003 2.76485 16.3818 3.67095C16.8671 4.82369 17.4933 6.63099 17.7505 8.74999C17.902 9.99739 17.5402 11.3027 16.47 11.9612C15.8149 12.3644 14.9088 12.7286 13.7084 12.8221ZM6.48229 6.1603C5.64051 6.1603 4.97594 6.87562 4.97594 7.74832C4.97594 8.62102 5.65527 9.33635 6.48229 9.33635C7.32406 9.33635 7.98863 8.62102 7.98863 7.74832C8.00339 6.87562 7.32406 6.1603 6.48229 6.1603ZM11.8726 6.1603C11.0308 6.1603 10.3663 6.87562 10.3663 7.74832C10.3663 8.62102 11.0456 9.33635 11.8726 9.33635C12.7144 9.33635 13.379 8.62102 13.379 7.74832C13.379 6.87562 12.7144 6.1603 11.8726 6.1603Z" fill="#F1FCF3"/>
</svg>
