<svg width="156" height="23" viewBox="0 0 156 23" fill="none" xmlns="http://www.w3.org/2000/svg">
<path d="M7.45237 17.9323C11.5279 17.9323 14.2061 16.3312 14.2061 13.6239C14.2061 11.2368 12.6341 10.0723 9.19902 9.63568L5.85128 9.16991C3.66796 8.8788 3.08575 8.47125 3.08575 7.33593C3.08575 5.96772 4.01729 5.3855 6.66638 5.3855C9.86857 5.3855 10.7419 6.28794 10.7419 8.00548V8.18014H13.8568V8.09281C13.8568 4.65773 11.1786 2.88197 6.75371 2.88197C2.29975 2.88197 0 4.68684 0 7.21948C0 9.63568 1.65932 10.8001 4.39573 11.1494L8.35481 11.6734C10.4217 11.9645 11.1203 12.343 11.1203 13.5365C11.1203 14.8174 10.2761 15.3996 7.45237 15.3996C4.42485 15.3996 3.28952 14.7883 3.28952 12.8961V12.6632H0.145554V12.7505C0.145554 16.0983 2.79464 17.9323 7.45237 17.9323Z" fill="#3C3C3C"/>
<path d="M22.5004 17.9323C26.2266 17.9323 28.1479 15.6034 28.6137 13.1581H28.7883V17.6412H31.6703V3.17308H28.5554V10.3343C28.5554 13.4783 27.0708 15.1085 23.8686 15.1085C20.812 15.1085 19.5602 13.7403 19.5602 11.033V3.17308H16.4453V11.8772C16.4453 15.225 18.4249 17.9323 22.5004 17.9323Z" fill="#3C3C3C"/>
<path d="M37.6705 22.59V13.5656H37.787C38.3692 16.2147 40.4652 17.9323 43.7256 17.9323C48.2378 17.9323 50.7122 14.9047 50.7122 10.4217C50.7122 5.93861 48.1796 2.88197 43.6965 2.88197C40.2905 2.88197 38.2528 4.51218 37.6705 7.19037H37.4085V3.17308H34.5266V22.59H37.6705ZM37.6705 10.6546V10.3926C37.6705 7.27771 39.4754 5.76394 42.7067 5.76394C45.7342 5.76394 47.5682 6.92838 47.5682 10.4217C47.5682 13.8859 45.7634 15.0794 42.6485 15.0794C39.5627 15.0794 37.6705 13.6239 37.6705 10.6546Z" fill="#3C3C3C"/>
<path d="M60.1691 17.9323C64.4775 17.9323 67.5051 15.8072 67.5051 12.7214V12.4594H64.3611V12.6923C64.3611 14.4099 63.1093 15.3996 60.0818 15.3996C56.734 15.3996 55.3658 13.915 55.2494 11.1203H67.5342C67.6215 10.6837 67.6506 10.2761 67.6506 9.75213C67.6506 5.35639 64.594 2.88197 60.1109 2.88197C55.3949 2.88197 52.3092 5.9095 52.3092 10.4217C52.3092 15.2541 55.424 17.9323 60.1691 17.9323ZM60.0527 5.35639C63.1384 5.35639 64.6813 6.63727 64.6813 9.31546V9.37369H55.2785C55.4532 6.78282 56.8505 5.35639 60.0527 5.35639Z" fill="#3C3C3C"/>
<path d="M73.1494 17.6412V9.51924C73.1494 6.92838 74.1682 5.56017 76.6427 5.56017C78.7969 5.56017 79.6702 6.52082 79.6702 8.58769V9.86857H82.785V7.97637C82.785 5.23995 81.3586 2.88197 78.0691 2.88197C75.0998 2.88197 73.5278 4.74506 73.0911 7.07393H72.8874V3.17308H70.0054V17.6412H73.1494Z" fill="#3C3C3C"/>
<path d="M94.2499 17.6412V14.8174H91.63C89.8251 14.8174 89.01 14.3516 89.01 12.5759V5.79305H94.2499V3.17308H89.01V0H85.8951V3.17308H83.4498V5.79305H85.8951V12.7505C85.8951 16.273 87.8164 17.6412 90.9313 17.6412H94.2499Z" fill="#3C3C3C"/>
<path d="M103.494 17.9323C107.803 17.9323 110.83 15.8072 110.83 12.7214V12.4594H107.686V12.6923C107.686 14.4099 106.434 15.3996 103.407 15.3996C100.059 15.3996 98.6909 13.915 98.5745 11.1203H110.859C110.947 10.6837 110.976 10.2761 110.976 9.75213C110.976 5.35639 107.919 2.88197 103.436 2.88197C98.72 2.88197 95.6343 5.9095 95.6343 10.4217C95.6343 15.2541 98.7492 17.9323 103.494 17.9323ZM103.378 5.35639C106.464 5.35639 108.006 6.63727 108.006 9.31546V9.37369H98.6036C98.7783 6.78282 100.176 5.35639 103.378 5.35639Z" fill="#3C3C3C"/>
<path d="M117.581 17.9323C120.87 17.9323 123.17 16.4767 123.927 14.0314H124.131V17.6412H127.013V8.84969C127.013 5.3855 124.946 2.88197 120.346 2.88197C115.747 2.88197 113.01 5.35639 113.01 8.64592V8.76236H116.125V8.64592C116.125 6.52082 117.435 5.6475 120.113 5.6475C122.879 5.6475 123.927 6.49171 123.927 8.8788V9.72302L117.348 10.4217C114.495 10.7419 112.69 11.9063 112.69 14.1479C112.69 16.5349 114.582 17.9323 117.581 17.9323ZM115.834 13.9441C115.834 12.8088 116.62 12.4303 118.25 12.2265L123.927 11.5861C123.927 14.439 121.714 15.6616 118.425 15.6616C116.62 15.6616 115.834 15.1085 115.834 13.9441Z" fill="#3C3C3C"/>
<path d="M132.963 17.6412V10.4799C132.963 7.27771 134.04 5.70572 137.155 5.70572C139.95 5.70572 141.056 6.92838 141.056 9.78124V17.6412H144.171V10.4799C144.171 7.27771 145.277 5.70572 148.363 5.70572C151.157 5.70572 152.293 6.92838 152.293 9.78124V17.6412H155.407V8.93702C155.407 5.44372 153.515 2.88197 149.76 2.88197C146.092 2.88197 144.462 5.18173 144.083 7.65615H143.909C143.501 4.89062 141.725 2.88197 138.436 2.88197C134.826 2.88197 133.254 5.12351 132.876 7.5397H132.701V3.17308H129.819V17.6412H132.963Z" fill="#3C3C3C"/>
</svg>
