<svg width="187" height="34" viewBox="0 0 187 34" fill="none" xmlns="http://www.w3.org/2000/svg">
<path d="M0.578125 2.00308C0.578125 2.81328 1.09371 3.47617 1.68294 3.47617C2.5668 3.47617 2.78776 4.7283 2.78776 10.1051C2.78776 15.4819 2.5668 16.734 1.68294 16.734C1.09371 16.734 0.578125 17.3969 0.578125 18.2071C0.578125 19.5329 1.09371 19.6802 5.29202 19.6802C10.2269 19.6802 13.7623 18.7963 14.7198 17.2496C15.751 15.6292 15.309 12.5357 13.8359 11.2099L12.3629 9.88412L13.8359 8.85295C15.309 7.82179 15.8246 4.65464 14.7198 2.96059C13.7623 1.41385 10.2269 0.529989 5.29202 0.529989C1.09371 0.529989 0.578125 0.677299 0.578125 2.00308ZM11.7 4.65464C13.1731 6.42235 11.6263 8.19006 8.38551 8.48468C5.8076 8.70565 5.73394 8.63199 5.73394 6.12774C5.73394 3.62348 5.88125 3.47617 8.2382 3.47617C9.56398 3.47617 11.1107 3.99175 11.7 4.65464ZM12.1419 12.7566C12.8784 14.7453 11.3317 16.3657 8.38551 16.5867C5.8076 16.8076 5.73394 16.734 5.73394 14.2297C5.73394 11.6518 5.8076 11.5782 8.68013 11.5782C10.7425 11.5782 11.8473 11.9464 12.1419 12.7566Z" fill="#3C3C3C"/>
<path d="M18.9917 8.26381C18.9917 15.5556 19.139 16.1449 20.8331 17.8389C23.3373 20.4168 28.6404 20.4168 31.1447 17.8389C32.8388 16.1449 32.9861 15.5556 32.9861 8.26381C32.9861 1.04567 32.9124 0.530085 31.513 0.530085C30.1135 0.530085 30.0399 1.04567 30.0399 7.74823C30.0399 15.7766 29.598 16.7341 25.8416 16.7341C22.6008 16.7341 21.9379 15.1873 21.9379 7.23265C21.9379 1.04567 21.8642 0.530085 20.4648 0.530085C19.0654 0.530085 18.9917 1.04567 18.9917 8.26381Z" fill="#3C3C3C"/>
<path d="M37.4053 10.1051C37.4053 19.1646 37.4789 19.6802 38.8784 19.6802C40.2778 19.6802 40.3515 19.1646 40.3515 10.1051C40.3515 1.04557 40.2778 0.529989 38.8784 0.529989C37.4789 0.529989 37.4053 1.04557 37.4053 10.1051Z" fill="#3C3C3C"/>
<path d="M44.0342 2.00308C44.0342 2.81328 44.5498 3.47617 45.139 3.47617C46.0229 3.47617 46.2438 4.7283 46.2438 10.1051C46.2438 15.4819 46.0229 16.734 45.139 16.734C44.5498 16.734 44.0342 17.3969 44.0342 18.2071C44.0342 19.4592 44.5498 19.6802 47.9379 19.6802C54.1985 19.6802 57.2183 18.5017 58.4705 15.6292C59.7226 12.6093 59.7963 8.26372 58.6914 4.94926C57.5866 1.92943 54.4195 0.529989 48.4535 0.529989C44.5498 0.529989 44.0342 0.677299 44.0342 2.00308ZM54.6404 4.65464C55.4506 5.39119 55.8189 7.1589 55.8189 10.1051C55.8189 14.8926 54.7141 16.734 51.6943 16.734C49.9265 16.734 49.9265 16.6603 49.9265 10.1051C49.9265 3.54983 49.9265 3.47617 51.6943 3.47617C52.7254 3.47617 54.0512 3.99175 54.6404 4.65464Z" fill="#3C3C3C"/>
<path d="M62.4478 10.1052V19.7539L68.4874 19.5329C73.6432 19.312 74.6008 19.091 74.8217 17.9862C75.0427 16.8814 74.4534 16.7341 70.6234 16.7341H66.1305V8.63207V0.530064H64.2891H62.4478V10.1052Z" fill="#3C3C3C"/>
<path d="M81.5981 2.00308C81.5981 3.18155 82.1137 3.47617 84.1761 3.47617H86.754V11.5782C86.754 19.1646 86.8276 19.6802 88.2271 19.6802C89.6265 19.6802 89.7001 19.1646 89.7001 11.5782V3.47617H92.6463C95.0769 3.47617 95.5925 3.25521 95.5925 2.00308C95.5925 0.603643 95.0769 0.529989 88.5953 0.529989C82.1137 0.529989 81.5981 0.603643 81.5981 2.00308Z" fill="#3C3C3C"/>
<path d="M148.624 10.1051C148.624 19.1646 148.697 19.6802 150.097 19.6802C151.422 19.6802 151.57 19.1646 151.57 15.3346C151.57 10.9153 152.675 8.63199 154.811 8.63199C156.578 8.63199 157.388 10.4734 157.609 14.8926C157.757 18.428 158.125 19.3119 159.156 19.5329C160.261 19.7538 160.408 19.1646 160.408 15.0399C160.408 12.3884 160.187 9.66316 159.966 9.00026C159.23 7.23255 155.547 5.61215 153.411 6.12774C151.643 6.56966 151.57 6.42235 151.57 3.54983C151.57 1.04557 151.349 0.529989 150.097 0.529989C148.697 0.529989 148.624 1.04557 148.624 10.1051Z" fill="#3C3C3C"/>
<path d="M139.785 3.84446C139.785 5.61217 139.417 6.42237 138.681 6.42237C138.091 6.42237 137.576 7.08526 137.576 7.89546C137.576 8.70566 138.091 9.36856 138.681 9.36856C139.491 9.36856 139.785 10.2524 139.785 13.0513C139.785 15.7765 140.154 17.1023 141.258 18.2071C143.247 20.1958 146.414 20.1958 146.414 18.2071C146.414 17.1023 145.899 16.734 144.573 16.734C142.879 16.734 142.732 16.513 142.732 13.0513C142.732 9.58952 142.879 9.36856 144.573 9.36856C145.899 9.36856 146.414 9.00028 146.414 7.89546C146.414 6.79065 145.899 6.42237 144.573 6.42237C142.952 6.42237 142.732 6.12776 142.732 3.84446C142.732 1.78214 142.437 1.26655 141.258 1.26655C140.08 1.26655 139.785 1.78214 139.785 3.84446Z" fill="#3C3C3C"/>
<path d="M97.8021 6.20134C89.7737 9.14753 92.7936 20.9323 101.19 19.3855C104.136 18.7963 107.598 15.0399 105.536 14.6716C104.873 14.5243 103.768 14.8926 103.032 15.5555C101.19 17.2495 97.2865 17.1022 96.329 15.3345C95.2242 13.1985 95.4451 11.2099 96.9182 9.88407C98.6859 8.26367 100.306 8.33733 103.032 9.88407C104.136 10.547 105.315 10.9152 105.609 10.6943C106.493 9.81042 104.431 7.30616 102.148 6.49596C99.5698 5.61211 99.4225 5.61211 97.8021 6.20134Z" fill="#3C3C3C"/>
<path d="M111.355 6.71693C109.145 7.67444 107.599 9.88408 108.482 10.6943C108.703 10.9152 109.882 10.547 110.987 9.88408C113.712 8.26368 115.701 8.26368 117.174 9.95773C118.794 11.7254 118.72 13.3458 117.174 16.0711C115.701 18.5017 116.216 19.3855 118.278 18.2807C120.635 17.0286 121.74 12.8303 120.414 10.105C119.752 8.92657 119.604 7.8954 119.973 7.8954C120.341 7.8954 120.635 7.37982 120.635 6.79059C120.635 5.39115 114.596 5.31749 111.355 6.71693Z" fill="#3C3C3C"/>
<path d="M126.822 6.71703C122.845 8.48474 121.814 14.2298 124.833 17.6179C127.338 20.4168 134.409 19.6066 135.587 16.3658C136.103 15.1136 133.525 14.7454 132.788 15.9975C132.125 17.0287 127.78 16.955 126.675 15.8502C124.981 14.1561 125.791 13.7879 131.389 13.7879H136.986L136.471 11.7255C135.44 7.30626 130.873 4.94932 126.822 6.71703ZM132.788 10.1051C134.114 11.5782 134.04 11.5782 129.989 11.5782C127.632 11.5782 125.791 11.4309 125.791 11.2836C125.791 11.0626 126.307 10.3998 126.969 9.81052C128.516 8.19012 131.168 8.33743 132.788 10.1051Z" fill="#3C3C3C"/>
<path d="M167.774 6.20143C165.712 6.93798 163.428 9.51589 162.986 11.6519C162.029 16.0711 166.743 20.4904 171.236 19.3119C173.372 18.7964 175.876 16.955 175.876 15.8502C175.876 15.04 173.077 15.1136 172.561 15.9975C171.678 17.3969 167.185 16.8813 166.301 15.2609C165.564 13.8615 165.712 13.7879 171.088 13.7879C175.581 13.7879 176.612 13.5669 176.612 12.683C176.612 10.3261 174.403 7.30625 172.12 6.49605C169.542 5.6122 169.394 5.6122 167.774 6.20143ZM172.488 9.81051C173.151 10.3997 173.666 11.0626 173.666 11.2836C173.666 11.4309 171.825 11.5782 169.468 11.5782C165.417 11.5782 165.343 11.5782 166.669 10.1051C168.29 8.33742 170.941 8.19011 172.488 9.81051Z" fill="#3C3C3C"/>
<path d="M178.822 13.1986C178.822 19.1646 178.97 19.6802 180.295 19.6802C181.547 19.6802 181.695 19.0909 181.916 14.6717C182.137 9.88412 182.21 9.73681 184.199 9.51585C185.598 9.36854 186.188 8.85295 186.188 7.89545C186.188 6.64332 185.672 6.49601 182.505 6.64332L178.822 6.79063V13.1986Z" fill="#3C3C3C"/>
<path d="M107.819 15.4082C108.924 17.3969 110.618 18.9436 111.576 18.9436C112.975 18.9436 112.754 17.1759 111.207 15.7765C109.587 14.3034 107.009 14.0824 107.819 15.4082Z" fill="#3C3C3C"/>
<path d="M109.734 22.4054C105.904 26.1618 107.156 31.9805 112.018 33.6009C115.7 34.853 119.309 33.0853 120.709 29.3289C121.593 27.0456 120.267 22.8473 118.278 21.8162C116.216 20.7114 115.7 21.5952 117.173 24.0258C118.794 26.751 118.794 28.7397 117.1 30.2128C115.553 31.6122 113.785 31.7595 111.723 30.7284C109.955 29.7709 109.808 25.8672 111.502 24.0258C112.165 23.2893 112.533 22.1108 112.386 21.3742C112.165 20.1958 111.797 20.3431 109.734 22.4054Z" fill="#3C3C3C"/>
</svg>
