<svg width="56" height="44" viewBox="0 0 56 44" fill="none" xmlns="http://www.w3.org/2000/svg">
<path d="M27.7133 4.19982C26.855 2.0569 24.7642 -0.257436 20.8482 0.0604905C15.8598 0.602781 14.3053 5.38331 15.0593 8.23523C13.0724 6.88991 9.69417 6.29836 6.74547 8.82418C2.93821 12.6406 4.97468 17.8019 7.06764 19.0399C4.761 18.8264 1.11541 20.385 0.308927 24.4622C-0.549012 29.5244 3.30995 32.4754 7.06764 32.4754H48.7362C53.0814 32.4754 55.4922 28.7163 55.2218 25.1711C54.7956 20.5443 50.5616 18.7692 48.2521 19.1495C50.1817 18.073 52.7586 13.016 48.8401 9.04045C45.7296 6.08178 41.7643 7.15834 40.3701 8.44875C41.1217 5.97713 39.8891 0.867995 34.8442 0.0599403C34.4954 0.0208966 34.1596 0 33.8397 0C29.9885 0.000549911 28.2567 2.81578 27.7133 4.19982Z" fill="#0D0D0D"/>
<path d="M7.4393 9.62981C5.23942 11.6213 4.43875 16.1337 8.40447 18.7715L24.2255 29.6259L16.5544 12.0513C14.9469 7.90411 10.5494 6.99974 7.4393 9.62981Z" fill="#3C3C3C"/>
<path d="M21.0573 1.08502C18.4856 1.13741 14.6239 4.19987 16.3425 8.87631L24.2765 27.5879L27.0645 7.90689C27.7096 3.01662 24.0088 0.759154 21.0573 1.08502Z" fill="#3C3C3C"/>
<path d="M28.3041 7.15624H29.8044C29.8044 7.15624 30.6055 7.15624 30.7146 7.53418C30.1242 8.0163 28.5173 8.07671 28.7306 10.6519L31.2526 27.5852L39.1324 8.82451C40.7442 4.6356 37.3611 1.13723 34.3601 1.03031C34.2199 1.02025 34.0792 1.01208 33.9336 1.01208C31.24 1.01201 28.1533 2.96961 28.3041 7.15624Z" fill="#3C3C3C"/>
<path d="M38.8143 12.2106L31.3613 29.5744L47.1777 18.6627C50.8236 16.0767 50.2356 11.9424 48.1947 9.89873C47.3391 8.93686 45.7682 8.19385 44.1041 8.19385C42.1381 8.19345 40.034 9.23624 38.8143 12.2106Z" fill="#3C3C3C"/>
<path d="M45.4062 21.1334L30.5527 31.5084H48.8417C52.5939 31.5084 55.0051 27.6397 53.9332 24.0895C53.2153 21.858 51.0912 20.1063 48.6258 20.1038C47.588 20.1042 46.4875 20.4167 45.4062 21.1334Z" fill="#3C3C3C"/>
<path d="M7.01336 31.5084H25.0324L10.1752 21.1334C6.7428 18.9281 2.88337 20.2185 1.49005 23.8782C0.309002 28.0675 3.25786 31.5084 7.01336 31.5084Z" fill="#3C3C3C"/>
<path d="M0.245605 39.0171C0.245605 40.784 1.69006 44.0003 7.20551 44.0003C12.2906 44.0003 13.8967 41.6669 13.8967 40.597H9.95986C9.95986 40.597 9.77289 42.0105 7.55211 42.0105C5.32992 42.0105 4.72895 40.1557 4.72895 39.0831C4.72895 38.0147 5.32992 36.26 7.55211 36.26C9.77289 36.26 9.95986 37.4906 9.95986 37.4906H13.8967C13.8967 36.4195 12.7183 34.119 7.20551 34.119C1.69006 34.119 0.245605 37.5443 0.245605 39.0171Z" fill="#3C3C3C"/>
<path d="M41.5332 39.0171C41.5332 40.784 42.9792 44.0003 48.4931 44.0003C53.5777 44.0003 55.1844 41.6669 55.1844 40.597H51.2504C51.2504 40.597 51.0625 42.0105 48.8412 42.0105C46.6188 42.0105 46.0172 40.1557 46.0172 39.0831C46.0172 38.0147 46.6188 36.26 48.8412 36.26C51.0625 36.26 51.2504 37.4906 51.2504 37.4906H55.1844C55.1844 36.4195 54.0073 34.119 48.4931 34.119C42.9792 34.119 41.5332 37.5443 41.5332 39.0171Z" fill="#3C3C3C"/>
<path d="M24.6555 34.2839V40.2655L20.0738 34.2839H14.9199V43.7582H18.4533V37.7079L22.9547 43.7582H28.189V34.2839H24.6555Z" fill="#3C3C3C"/>
<path d="M35.979 41.4948V41.5072H33.0349V39.7676H35.979V39.7733C36.6076 39.7733 37.1157 40.1597 37.1157 40.6354C37.1157 41.11 36.6076 41.4948 35.979 41.4948ZM33.062 36.1266H35.8987V36.1306C36.3793 36.1306 36.7691 36.4468 36.7691 36.836C36.7691 37.2267 36.3793 37.5401 35.8987 37.5401V37.5444H33.062V36.1266ZM38.8705 38.7213C39.5137 38.7213 40.8587 37.9746 40.8587 36.528C40.8587 34.4682 37.0229 34.2839 36.4345 34.2839H29.3672V43.7582H36.4345C39.8336 43.7582 41.199 42.6844 41.199 40.8912C41.199 39.098 38.8705 38.7213 38.8705 38.7213Z" fill="#3C3C3C"/>
</svg>
