<svg width="105" height="34" viewBox="0 0 105 34" fill="none" xmlns="http://www.w3.org/2000/svg">
<path d="M22.6237 0.236489C23.3748 0.236489 24.1295 0.236489 24.8837 0.231281C24.8754 2.92983 24.9108 5.62889 24.8671 8.32744C24.8478 10.0692 24.1129 11.9255 22.5165 12.7896C20.7122 13.7084 18.4246 13.7032 16.6558 12.7047C15.15 11.8234 14.4182 10.0114 14.4588 8.32171C14.4672 5.62577 14.4614 2.92983 14.4646 0.233885H16.6579C16.6636 2.56783 16.6527 4.89918 16.6605 7.23312C16.699 8.30556 16.7016 9.4728 17.3465 10.3869C18.2132 11.5802 20.0315 11.6927 21.2529 11.0208C22.3581 10.3541 22.5941 8.96392 22.6159 7.77638C22.6347 5.26377 22.618 2.74909 22.6237 0.236489ZM32.4148 0.28597C34.3148 -0.278636 36.4352 0.0640864 38.1275 1.07611C38.1171 1.86572 38.1171 2.65273 38.1171 3.44026C36.6967 2.38137 34.8071 1.60269 33.0434 2.21938C32.2809 2.44752 31.7819 3.36526 32.1491 4.10383C32.4507 4.81115 33.271 5.01689 33.92 5.28044C35.3185 5.83724 36.9311 6.13621 37.9681 7.31802C39.301 8.92799 38.9635 11.7942 37.0108 12.7735C34.8138 13.9115 32.0684 13.5495 29.9621 12.3646C29.9595 11.5526 29.9595 10.7437 29.9511 9.93167C31.5366 11.1526 33.7362 11.8765 35.6779 11.1333C36.7368 10.7494 36.8712 9.10195 35.9113 8.53318C34.4216 7.63106 32.5924 7.4472 31.1637 6.42424C29.9079 5.52108 29.5376 3.7309 30.0589 2.32095C30.448 1.29799 31.3892 0.587545 32.4148 0.28597ZM52.8052 0.0390854C55.7944 2.7819 58.7018 5.61796 61.6363 8.42067V0.233885H63.8301V13.4756C60.8378 10.6338 57.9283 7.70762 54.9193 4.88147V13.1865C54.2094 13.1917 53.5016 13.1917 52.7942 13.1943C52.7979 8.81027 52.776 4.42728 52.8052 0.0390854ZM69.5933 0.231281C72.2403 0.231281 74.8842 0.244823 77.528 0.222947C77.5442 0.889641 77.5442 1.55581 77.5442 2.22251C75.6467 2.22251 73.7513 2.21938 71.8533 2.22251V5.30232C73.5456 5.30805 75.2352 5.30232 76.9275 5.30805V7.29354C75.2351 7.29597 73.5437 7.29597 71.8533 7.29354C71.8533 8.59568 71.8533 9.90198 71.8591 11.2046C73.7513 11.1963 75.6467 11.2046 77.5364 11.1989C77.539 11.8849 77.5416 12.5729 77.5416 13.2589H69.5881C69.5933 8.91705 69.5855 4.57573 69.5933 0.231281ZM83.9731 0.741197C86.03 -0.448955 88.6577 -0.084357 90.676 1.01308C90.7145 1.81937 90.7145 2.62773 90.7119 3.43453C89.2473 2.33762 87.2743 1.55321 85.4763 2.27199C84.4559 2.63659 84.3377 4.17519 85.2648 4.70698C86.7753 5.57368 88.6217 5.74869 90.0343 6.81332C91.9323 8.22848 91.7922 11.6541 89.6228 12.7511C87.4258 13.9032 84.6533 13.5631 82.5522 12.3453C82.5522 11.5442 82.5522 10.7437 82.5387 9.94261C84.0689 11.0364 86.0164 11.7802 87.9035 11.2703C88.5998 11.0947 89.2389 10.4692 89.14 9.70145C89.154 9.11445 88.7426 8.59881 88.2269 8.35765C86.7456 7.58939 84.9976 7.37271 83.6549 6.33361C81.9022 4.97574 82.0178 1.86312 83.9731 0.741197ZM97.1377 0.78547C99.1779 -0.448955 101.849 -0.117171 103.865 1.00996C103.873 1.80843 103.873 2.60377 103.879 3.40172C102.428 2.3048 100.448 1.56154 98.6737 2.28553C97.6841 2.6694 97.571 4.16425 98.4758 4.70698C100.023 5.60702 101.948 5.74869 103.363 6.89874C104.581 7.85867 104.825 9.63843 104.353 11.0427C103.911 12.2927 102.652 13.0219 101.415 13.2886C99.5175 13.6808 97.4908 13.3297 95.8043 12.3812C95.7767 11.5666 95.7767 10.752 95.7741 9.9374C97.37 11.1223 99.5451 11.8817 101.484 11.1354C102.54 10.7515 102.702 9.1332 101.75 8.5462C100.22 7.58887 98.2888 7.4524 96.8543 6.31642C95.1631 4.9596 95.2423 1.92718 97.1377 0.78547ZM0.407227 0.233885C2.7068 0.368265 5.09492 -0.104149 7.32001 0.62088C9.79094 1.4131 10.142 5.27784 7.88774 6.53362C9.94199 7.38417 10.4134 10.2968 9.00393 11.9094C8.13723 12.9406 6.72206 13.2146 5.44128 13.2532C3.76257 13.2808 2.08698 13.2532 0.408268 13.2615V0.233885M2.60523 2.22511C2.60245 3.36613 2.60245 4.50697 2.60523 5.64764C3.78445 5.59035 5.00793 5.81223 6.15954 5.48045C7.55022 5.07731 7.56116 2.78711 6.17881 2.37043C5.01314 2.07406 3.79278 2.2772 2.60523 2.22511ZM2.60523 7.57064C2.60002 8.80454 2.60263 10.039 2.60523 11.2687C3.95945 11.1729 5.41368 11.5349 6.69446 10.9671C7.9643 10.3473 7.84919 8.23525 6.51893 7.76075C5.25742 7.36751 3.90528 7.65658 2.60523 7.57064ZM44.359 0.233885H46.5549V13.2615H44.359V0.233885ZM35.3685 20.4607C37.417 19.1633 40.1489 19.5232 42.173 20.6941C42.162 21.4785 42.162 22.2629 42.1646 23.0468C40.6839 21.9639 38.6489 21.1274 36.866 21.9582C35.9857 22.378 35.8706 23.6859 36.6629 24.2536C38.2869 25.2849 40.4453 25.3344 41.8464 26.7443C42.7839 27.6298 42.9402 29.0423 42.6996 30.2492C42.4199 31.456 41.3667 32.3555 40.2062 32.6972C38.1749 33.3222 35.8951 32.9852 34.0685 31.9237C34.0742 31.12 34.0768 30.3169 34.0685 29.5132C35.6128 30.6731 37.7108 31.4357 39.6088 30.7554C40.7547 30.4481 40.9828 28.6876 39.9458 28.1116C38.4129 27.1542 36.4628 27.0339 35.0529 25.849C33.4544 24.4979 33.5586 21.5905 35.3685 20.4607ZM9.11643 19.9123H11.3077C11.3129 24.2072 11.3137 28.5039 11.3103 32.8024H9.11643V19.9123ZM17.547 19.6107C20.4653 22.3968 23.3769 25.1943 26.3208 27.9538C26.3317 25.2495 26.3234 22.5478 26.326 19.8467C27.0552 19.8435 27.7866 19.8425 28.5203 19.8435C28.5255 24.2401 28.5146 28.6335 28.5255 33.03C25.5499 30.2096 22.6321 27.3256 19.6788 24.4802C19.6648 27.2532 19.6788 30.0283 19.6731 32.8039H17.5475C17.5447 28.4048 17.5445 24.0071 17.547 19.6107ZM48.404 19.9123H50.5983V32.8024H48.404V19.9123ZM56.909 19.9123C58.6754 19.9123 60.4435 19.9104 62.2134 19.9066C64.2233 19.8821 66.2995 20.9108 67.2818 22.7072C68.3376 24.5937 68.4058 26.9386 67.7506 28.971C67.0485 31.1065 64.9583 32.617 62.7316 32.7612C60.7925 32.8602 58.8507 32.7753 56.909 32.8024V19.9123ZM59.169 21.9004V30.8112C60.7404 30.7539 62.4326 31.0528 63.8942 30.3179C65.3005 29.5934 65.9432 27.948 65.9021 26.4339C65.9593 24.9036 65.4192 23.1869 64.0098 22.4025C62.5311 21.5769 60.7789 22.0051 59.169 21.9004ZM72.6763 19.9123C75.3035 19.9098 77.9319 19.9098 80.5615 19.9123C80.5615 20.5758 80.5584 21.2394 80.5584 21.9035C78.6611 21.898 76.765 21.898 74.8701 21.9035V24.9146C76.5598 24.9177 78.2512 24.9187 79.9443 24.9177V26.8376C78.252 26.8376 76.5587 26.8344 74.8701 26.8376V30.8086C76.7655 30.8143 78.6635 30.8086 80.5615 30.8117V32.7998H72.6763V19.9123ZM87.0092 19.9097C88.7889 19.9258 90.5692 19.893 92.3464 19.9206C93.8568 19.9586 95.4538 20.8285 95.8882 22.353C96.2778 23.6781 96.1845 25.2495 95.334 26.3818C94.8131 27.0589 93.9683 27.3147 93.1787 27.5313C94.7197 29.2724 96.2491 31.0259 97.7669 32.792C96.8988 32.8086 96.034 32.8086 95.1725 32.792C93.7021 31.045 92.2036 29.3226 90.7265 27.5865C90.2385 27.5897 89.753 27.5897 89.2681 27.5897C89.2629 29.3257 89.2655 31.0617 89.2655 32.7982C88.5113 32.8006 87.7571 32.8006 87.0029 32.7982V19.9055M89.2655 21.8327C89.2603 23.1108 89.2629 24.389 89.2655 25.6667C90.4369 25.6011 91.6614 25.8505 92.7953 25.4859C94.1969 24.9234 94.2272 22.6733 92.8474 22.0738C91.713 21.64 90.4593 21.8952 89.2717 21.8348" fill="#3C3C3C"/>
</svg>
