<svg width="18" height="18" viewBox="0 0 18 18" fill="none" xmlns="http://www.w3.org/2000/svg">
<path d="M1.5 4.39372C1.5 2.79556 2.79556 1.5 4.39372 1.5H13.6535C15.2256 1.5 16.5 2.77441 16.5 4.34647C16.5 5.18377 16.1314 5.97859 15.4922 6.51943L12.5586 9.00172C11.6229 9.7934 11.0833 10.9569 11.0833 12.1825V13.6664C11.0833 14.3995 10.7325 15.0885 10.1396 15.5197L8.52184 16.6962C7.68039 17.3082 6.5 16.7071 6.5 15.6667V12.0829C6.5 10.915 6.00981 9.80066 5.14885 9.01145L2.43836 6.52683C1.84044 5.97873 1.5 5.20484 1.5 4.39372Z" stroke="#F1FCF3" stroke-width="1.4"/>
</svg>
