<svg width="186" height="25" viewBox="0 0 186 31" fill="none" xmlns="http://www.w3.org/2000/svg">
<path fill-rule="evenodd" clip-rule="evenodd" d="M29.6117 3.50765H4.3392C4.26078 3.50765 4.19721 3.56819 4.19721 3.64287V10.4714C4.19721 10.5461 4.26078 10.6067 4.3392 10.6067H31.8834C32.2755 10.6067 32.5933 10.9093 32.5933 11.2827V13.031C32.5933 13.2103 32.5185 13.3823 32.3854 13.509L15.7027 29.3973C15.4254 29.6614 14.976 29.6614 14.6987 29.3973L13.5729 28.3252C13.2957 28.0612 13.2957 27.6331 13.5729 27.3691L28.0916 13.5418C28.1809 13.4567 28.1176 13.3111 27.9911 13.3111H1.71256C1.32049 13.3111 1.00266 13.0084 1.00266 12.6349V1.14131C1.00266 0.767909 1.32049 0.46521 1.71256 0.46521H32.2383C32.6304 0.46521 32.9483 0.767909 32.9483 1.14131V7.76296C32.9483 8.13637 32.6304 8.43906 32.2383 8.43906H8.10168C7.70961 8.43906 7.39177 8.13637 7.39177 7.76296V6.07272C7.39177 5.69933 7.70961 5.39662 8.10168 5.39662H29.6117C29.6901 5.39662 29.7537 5.33609 29.7537 5.2614V3.64287C29.7537 3.56819 29.6901 3.50765 29.6117 3.50765ZM6.68441 21.723L5.12436 20.2372C4.98743 20.1068 4.98553 19.8959 5.12008 19.7633L9.34727 15.5965C9.41415 15.5306 9.50628 15.4934 9.60254 15.4934H12.6382C12.951 15.4934 13.1109 15.8508 12.8942 16.0656L7.19134 21.7182C7.0536 21.8547 6.82499 21.8569 6.68441 21.723ZM9.18715 24.1389L10.7471 25.6246C10.887 25.7577 11.1141 25.7564 11.2522 25.6217L21.039 16.0675C21.2583 15.8533 21.0991 15.4934 20.785 15.4934H17.7564C17.6612 15.4934 17.5699 15.5298 17.5032 15.5946L9.18487 23.663C9.0484 23.7954 9.04943 24.0077 9.18715 24.1389Z" fill="#23963E"/>
<path d="M47.4361 23.855C46.201 23.855 45.0843 23.6536 44.0861 23.2507C43.1047 22.8479 42.3264 22.2678 41.7512 21.5104C41.1759 20.7531 40.8798 19.8587 40.8629 18.8275H44.6698C44.7205 19.5204 44.9743 20.0682 45.4312 20.4711C45.9049 20.8739 46.5479 21.0753 47.36 21.0753C48.189 21.0753 48.8404 20.89 49.3142 20.5194C49.7879 20.1327 50.0248 19.6332 50.0248 19.0208C50.0248 18.5213 49.8641 18.1104 49.5426 17.7881C49.2211 17.4658 48.8151 17.2161 48.3244 17.0388C47.8507 16.8455 47.1908 16.636 46.3448 16.4104C45.1943 16.0881 44.2553 15.7739 43.5277 15.4677C42.8171 15.1454 42.1995 14.6701 41.675 14.0416C41.1674 13.3971 40.9136 12.5431 40.9136 11.4795C40.9136 10.4805 41.1759 9.61034 41.7004 8.8691C42.2249 8.12786 42.9609 7.56388 43.9084 7.17715C44.8559 6.7743 45.9387 6.57288 47.157 6.57288C48.9843 6.57288 50.4647 6.99989 51.5983 7.85393C52.7489 8.69185 53.3833 9.86816 53.5018 11.3829H49.5934C49.5595 10.8028 49.2973 10.3274 48.8066 9.95678C48.3329 9.57005 47.6984 9.37669 46.9032 9.37669C46.2095 9.37669 45.6511 9.54588 45.2281 9.88427C44.8221 10.2227 44.619 10.7141 44.619 11.3587C44.619 11.8099 44.7713 12.1886 45.0759 12.4947C45.3973 12.7848 45.7865 13.0265 46.2433 13.2198C46.717 13.3971 47.3769 13.6066 48.2229 13.8483C49.3734 14.1706 50.3124 14.4928 51.04 14.8151C51.7675 15.1374 52.3936 15.6208 52.9181 16.2654C53.4426 16.9099 53.7048 17.7559 53.7048 18.8033C53.7048 19.7057 53.4595 20.5436 52.9688 21.317C52.4782 22.0905 51.7591 22.7109 50.8116 23.1782C49.8641 23.6294 48.7389 23.855 47.4361 23.855Z" fill="#092A13"/>
<path d="M61.5565 13.0748V19.5526C61.5565 20.0038 61.6665 20.3341 61.8865 20.5436C62.1233 20.7369 62.5125 20.8336 63.0539 20.8336H64.7036V23.6858H62.4702C59.4754 23.6858 57.9781 22.3 57.9781 19.5284V13.0748H56.303V10.2952H57.9781V6.98378H61.5565V10.2952H64.7036V13.0748H61.5565Z" fill="#092A13"/>
<path d="M71.4467 12.3739C71.9036 11.6649 72.4958 11.1089 73.2233 10.7061C73.9678 10.3032 74.8137 10.1018 75.7612 10.1018V13.6549H74.8222C73.7055 13.6549 72.8595 13.9047 72.2843 14.4042C71.7259 14.9037 71.4467 15.7739 71.4467 17.0146V23.6858H67.8936V10.2952H71.4467V12.3739Z" fill="#092A13"/>
<path d="M91.8592 16.7004C91.8592 17.1838 91.8254 17.6189 91.7577 18.0057H81.4791C81.5637 18.9725 81.919 19.7298 82.545 20.2777C83.1711 20.8256 83.9409 21.0995 84.8545 21.0995C86.1743 21.0995 87.1133 20.5597 87.6717 19.4801H91.5039C91.0979 20.7692 90.3196 21.8327 89.169 22.6706C88.0185 23.4924 86.6057 23.9033 84.9307 23.9033C83.5771 23.9033 82.3589 23.6213 81.2761 23.0573C80.2101 22.4772 79.3726 21.6635 78.7635 20.6161C78.1713 19.5687 77.8752 18.3602 77.8752 16.9905C77.8752 15.6047 78.1713 14.3881 78.7635 13.3407C79.3557 12.2933 80.1848 11.4876 81.2507 10.9236C82.3166 10.3596 83.5433 10.0776 84.9307 10.0776C86.2673 10.0776 87.4602 10.3516 88.5092 10.8994C89.5751 11.4473 90.3957 12.2288 90.971 13.244C91.5631 14.2431 91.8592 15.3952 91.8592 16.7004ZM88.1792 15.7336C88.1623 14.8635 87.8324 14.1706 87.1894 13.6549C86.5465 13.1232 85.7597 12.8573 84.8292 12.8573C83.9494 12.8573 83.2049 13.1151 82.5958 13.6307C82.0036 14.1303 81.6398 14.8312 81.5045 15.7336H88.1792Z" fill="#092A13"/>
<path d="M94.1735 16.9421C94.1735 15.5886 94.4527 14.3881 95.011 13.3407C95.5863 12.2933 96.3561 11.4876 97.3206 10.9236C98.3019 10.3596 99.3932 10.0776 100.594 10.0776C101.643 10.0776 102.557 10.2791 103.335 10.6819C104.131 11.0848 104.765 11.5923 105.239 12.2047V10.2952H108.817V23.6858H105.239V21.7279C104.782 22.3564 104.148 22.8801 103.335 23.299C102.54 23.7019 101.618 23.9033 100.569 23.9033C99.3847 23.9033 98.3019 23.6133 97.3206 23.0332C96.3561 22.4531 95.5863 21.6393 95.011 20.5919C94.4527 19.5284 94.1735 18.3118 94.1735 16.9421ZM105.239 16.9905C105.239 16.1687 105.07 15.4677 104.731 14.8876C104.393 14.2914 103.936 13.8402 103.361 13.5341C102.786 13.2118 102.168 13.0506 101.508 13.0506C100.848 13.0506 100.239 13.2037 99.6808 13.5099C99.1225 13.8161 98.6657 14.2672 98.3103 14.8635C97.972 15.4435 97.8028 16.1364 97.8028 16.9421C97.8028 17.7478 97.972 18.4568 98.3103 19.0692C98.6657 19.6654 99.1225 20.1246 99.6808 20.4469C100.256 20.7692 100.865 20.9303 101.508 20.9303C102.168 20.9303 102.786 20.7772 103.361 20.4711C103.936 20.1488 104.393 19.6976 104.731 19.1175C105.07 18.5213 105.239 17.8123 105.239 16.9905Z" fill="#092A13"/>
<path d="M130.383 10.1018C132.109 10.1018 133.496 10.6094 134.545 11.6246C135.611 12.6236 136.144 14.0255 136.144 15.8303V23.6858H132.591V16.2895C132.591 15.2421 132.312 14.4445 131.754 13.8966C131.195 13.3326 130.434 13.0506 129.469 13.0506C128.505 13.0506 127.735 13.3326 127.16 13.8966C126.602 14.4445 126.322 15.2421 126.322 16.2895V23.6858H122.769V16.2895C122.769 15.2421 122.49 14.4445 121.932 13.8966C121.373 13.3326 120.612 13.0506 119.648 13.0506C118.666 13.0506 117.888 13.3326 117.313 13.8966C116.754 14.4445 116.475 15.2421 116.475 16.2895V23.6858H112.922V10.2952H116.475V11.9146C116.932 11.3506 117.516 10.9075 118.226 10.5852C118.954 10.2629 119.749 10.1018 120.612 10.1018C121.712 10.1018 122.693 10.3274 123.556 10.7786C124.419 11.2137 125.087 11.8421 125.561 12.6639C126.018 11.8904 126.678 11.2701 127.541 10.8028C128.42 10.3355 129.368 10.1018 130.383 10.1018Z" fill="#092A13"/>
<path d="M155.302 23.6858H151.749L143.703 12.108V23.6858H140.15V6.79041H143.703L151.749 18.3924V6.79041H155.302V23.6858Z" fill="#23963E"/>
<path d="M170.386 6.81458V9.54588H163.001V13.8724H168.66V16.5554H163.001V23.6858H159.448V6.81458H170.386Z" fill="#23963E"/>
<path d="M185.595 6.81458V9.54588H180.875V23.6858H177.322V9.54588H172.601V6.81458H185.595Z" fill="#23963E"/>
</svg>
