<svg width="21" height="20" viewBox="0 0 21 20" fill="none" xmlns="http://www.w3.org/2000/svg">
<path d="M10.5952 8.33337C11.5157 8.33337 12.2619 9.07957 12.2619 10C12.2619 10.9205 11.5157 11.6667 10.5952 11.6667C9.67473 11.6667 8.92854 10.9205 8.92854 10C8.92854 9.07957 9.67473 8.33337 10.5952 8.33337Z" stroke="#1A4D27" stroke-width="1.4"/>
<path d="M3.92854 8.33337C4.84901 8.33337 5.5952 9.07957 5.5952 10C5.5952 10.9205 4.84901 11.6667 3.92854 11.6667C3.00806 11.6667 2.26187 10.9205 2.26187 10C2.26187 9.07957 3.00806 8.33337 3.92854 8.33337Z" stroke="#1A4D27" stroke-width="1.4"/>
<path d="M17.2619 8.33337C18.1823 8.33337 18.9285 9.07957 18.9285 10C18.9285 10.9205 18.1823 11.6667 17.2619 11.6667C16.3414 11.6667 15.5952 10.9205 15.5952 10C15.5952 9.07957 16.3414 8.33337 17.2619 8.33337Z" stroke="#1A4D27" stroke-width="1.4"/>
</svg>
