<svg width="111" height="111" viewBox="0 0 111 111" fill="none" xmlns="http://www.w3.org/2000/svg">
<path fill-rule="evenodd" clip-rule="evenodd" d="M35.4708 31.7795C37.9812 36.3253 39.3732 41.2485 39.6957 46.1944C35.2673 48.2841 30.3511 49.4505 25.222 49.4852L21.4444 49.5108L21.2516 50.733L24.8378 51.9204C29.829 53.5729 34.2413 56.2878 37.8619 59.7606C36.2182 64.5006 33.5247 68.926 29.8322 72.6688L27.1791 75.358L27.907 76.3586L31.2824 74.6623C35.8655 72.3592 40.774 71.1606 45.6683 71.0063C47.6318 75.5572 48.6326 80.5745 48.4658 85.7648L48.0456 98.8453L49.2747 99.0392L52.902 86.4647C54.3046 81.6023 56.7116 77.2376 59.859 73.5706C64.3303 75.4036 68.4599 78.1949 71.9216 81.8864L80.8737 91.4329L81.8799 90.7009L75.5533 79.2445C73.0429 74.6986 71.6509 69.7755 71.3284 64.8296C75.7568 62.7398 80.6731 61.5734 85.8022 61.5387L89.5798 61.5131L89.7726 60.2909L86.1864 59.1036C81.1952 57.451 76.7829 54.7361 73.1622 51.2633C74.806 46.5234 77.4995 42.098 81.192 38.3552L83.845 35.666L83.1171 34.6654L79.7418 36.3616C75.1586 38.6648 70.2502 39.8633 65.3559 40.0176C63.3924 35.4668 62.3916 30.4494 62.5584 25.2591L62.9786 12.1787L61.7495 11.9848L58.1222 24.5592C56.7196 29.4217 54.3125 33.7864 51.1651 37.4534C46.6938 35.6203 42.5642 32.829 39.1025 29.1375L30.1504 19.5911L29.1442 20.3231L35.4708 31.7795ZM32.6666 24.1075L36.5685 31.1733C39.0822 35.7251 40.5139 40.6419 40.9093 45.5922C44.4181 43.7646 47.5907 41.3449 50.2816 38.4436C45.8043 36.5431 41.67 33.7087 38.1878 29.9953L32.6666 24.1075ZM25.2593 50.739C30.2205 52.386 34.629 55.0462 38.2901 58.4407C39.3567 54.9128 39.8525 51.2329 39.7573 47.5478C35.3003 49.572 30.3825 50.7002 25.2593 50.739ZM40.9921 46.9581C41.1669 51.1762 40.5934 55.3965 39.2999 59.4145C42.2802 62.4036 44.7113 65.9007 46.4752 69.7363C50.9225 69.7015 55.3434 70.497 59.5003 72.0804C62.4813 68.7788 66.056 66.0587 70.032 64.0658C69.8572 59.8477 70.4307 55.6274 71.7243 51.6095C68.744 48.6203 66.3128 45.1232 64.549 41.2877C60.1017 41.3224 55.6808 40.527 51.5239 38.9436C48.5429 42.2452 44.9682 44.9653 40.9921 46.9581ZM30.7451 73.5289C34.4134 69.8047 37.1285 65.4297 38.8439 60.741C41.399 63.3971 43.5151 66.4483 45.1072 69.7732C40.2173 69.9988 35.3248 71.2321 30.7451 73.5289ZM49.7192 85.8051C49.8861 80.608 48.9236 75.5783 47.023 70.9903C50.979 71.021 54.9053 71.7319 58.6217 73.0909C55.4997 76.8207 53.1081 81.2259 51.6971 86.1171L49.46 93.8725L49.7192 85.8051ZM72.8363 81.0287C69.3541 77.3153 65.2199 74.4809 60.7426 72.5804C63.4334 69.679 66.6061 67.2594 70.1148 65.4318C70.5102 70.3821 71.9419 75.2989 74.4556 79.8507L78.3575 86.9164L72.8363 81.0287ZM85.7649 60.2849C80.6416 60.3237 75.7239 61.4519 71.2669 63.4762C71.1716 59.791 71.6674 56.1111 72.734 52.5832C76.3951 55.9777 80.8036 58.6379 85.7649 60.2849ZM80.279 37.495C76.6107 41.2193 73.8957 45.5942 72.1803 50.2829C69.6251 47.6268 67.5091 44.5756 65.9169 41.2508C70.8069 41.0251 75.6993 39.7919 80.279 37.495ZM61.305 25.2189C61.138 30.4159 62.1006 35.4456 64.0012 40.0337C60.0451 40.003 56.1189 39.2921 52.4025 37.933C55.5245 34.2033 57.9161 29.798 59.3271 24.9068L61.5642 17.1515L61.305 25.2189Z" fill="white"/>
<path fill-rule="evenodd" clip-rule="evenodd" d="M99.8037 23.2916C117.599 47.7532 112.194 82.0088 87.7325 99.8036C63.2708 117.598 29.0152 112.194 11.2204 87.7324C-6.57444 63.2707 -1.16994 29.0151 23.2917 11.2203C47.7533 -6.57455 82.0089 -1.17005 99.8037 23.2916ZM98.7897 24.0293C116.177 47.9308 110.896 81.4022 86.9948 98.7896C63.0932 116.177 29.6219 110.896 12.2344 86.9947C-5.15297 63.0931 0.127793 29.6218 24.0294 12.2343C47.9309 -5.15308 81.4023 0.127682 98.7897 24.0293Z" fill="white"/>
</svg>
