<svg width="34" height="31" viewBox="0 0 34 31" fill="none" xmlns="http://www.w3.org/2000/svg">
<path fill-rule="evenodd" clip-rule="evenodd" d="M29.6117 3.50752H4.3392C4.26078 3.50752 4.19721 3.56807 4.19721 3.64274V10.4713C4.19721 10.546 4.26078 10.6065 4.3392 10.6065H31.8834C32.2755 10.6065 32.5933 10.9092 32.5933 11.2826V13.0309C32.5933 13.2102 32.5185 13.3822 32.3854 13.5089L15.7027 29.3972C15.4254 29.6613 14.976 29.6613 14.6987 29.3972L13.5729 28.3251C13.2957 28.0611 13.2957 27.633 13.5729 27.369L28.0916 13.5417C28.1809 13.4566 28.1176 13.3109 27.9911 13.3109H1.71256C1.32049 13.3109 1.00266 13.0083 1.00266 12.6348V1.14119C1.00266 0.767787 1.32049 0.465088 1.71256 0.465088H32.2383C32.6304 0.465088 32.9483 0.767787 32.9483 1.14119V7.76284C32.9483 8.13625 32.6304 8.43894 32.2383 8.43894H8.10168C7.70961 8.43894 7.39177 8.13625 7.39177 7.76284V6.0726C7.39177 5.6992 7.70961 5.3965 8.10168 5.3965H29.6117C29.6901 5.3965 29.7537 5.33597 29.7537 5.26128V3.64274C29.7537 3.56807 29.6901 3.50752 29.6117 3.50752ZM6.68441 21.7229L5.12436 20.2371C4.98743 20.1067 4.98553 19.8958 5.12008 19.7632L9.34727 15.5963C9.41415 15.5304 9.50628 15.4932 9.60254 15.4932H12.6382C12.951 15.4932 13.1109 15.8507 12.8942 16.0655L7.19134 21.7181C7.0536 21.8546 6.82499 21.8568 6.68441 21.7229ZM9.18715 24.1388L10.7471 25.6245C10.887 25.7576 11.1141 25.7563 11.2522 25.6215L21.039 16.0673C21.2583 15.8532 21.0991 15.4932 20.785 15.4932H17.7564C17.6612 15.4932 17.5699 15.5297 17.5032 15.5944L9.18487 23.6629C9.0484 23.7953 9.04943 24.0076 9.18715 24.1388Z" fill="#23963E"/>
</svg>
