<svg width="18" height="16" viewBox="0 0 18 16" fill="none" xmlns="http://www.w3.org/2000/svg">
<path d="M16.3047 7.14437V13.7854C16.3047 14.2063 16.1589 14.5626 15.8672 14.8543C15.5755 15.146 15.2192 15.2918 14.7983 15.2918H3.22779C2.80686 15.2918 2.45056 15.146 2.1589 14.8543C1.86723 14.5626 1.7214 14.2063 1.7214 13.7854V7.12835C1.38592 6.8527 1.13405 6.49506 0.965771 6.05543C0.797507 5.6158 0.794035 5.14117 0.955354 4.63156L1.79831 1.87835C1.90942 1.52793 2.09799 1.24535 2.36402 1.0306C2.63005 0.815864 2.94789 0.708496 3.31754 0.708496H14.6925C15.0622 0.708496 15.3779 0.811059 15.6396 1.01618C15.9014 1.22131 16.0921 1.50336 16.2118 1.86233L17.0707 4.63156C17.232 5.14117 17.2286 5.61419 17.0603 6.05062C16.892 6.48705 16.6402 6.85163 16.3047 7.14437ZM10.8464 6.54183C11.3015 6.54183 11.6437 6.40267 11.8728 6.12435C12.102 5.84605 12.1958 5.54717 12.1541 5.22773L11.6477 1.95845H9.63804V5.25014C9.63804 5.60057 9.75663 5.90346 9.99381 6.15881C10.231 6.41416 10.5152 6.54183 10.8464 6.54183ZM7.09638 6.54183C7.47993 6.54183 7.79111 6.41416 8.0299 6.15881C8.26867 5.90346 8.38806 5.60057 8.38806 5.25014V1.95845H6.37842L5.872 5.25977C5.82714 5.55571 5.92009 5.84337 6.15086 6.12275C6.38163 6.40214 6.69681 6.54183 7.09638 6.54183ZM3.38804 6.54183C3.69681 6.54183 3.96231 6.43419 4.18454 6.21891C4.40676 6.00362 4.54405 5.73305 4.5964 5.40721L5.08679 1.95845H3.31754C3.22672 1.95845 3.1546 1.97849 3.10119 2.01856C3.04776 2.05863 3.00769 2.11873 2.98098 2.19887L2.17971 4.91039C2.06965 5.26831 2.12147 5.62969 2.33515 5.99454C2.54883 6.3594 2.89979 6.54183 3.38804 6.54183ZM14.638 6.54183C15.0889 6.54183 15.434 6.36475 15.6733 6.01058C15.9126 5.6564 15.9703 5.28967 15.8464 4.91039L15.0035 2.18283C14.9767 2.1027 14.9367 2.04527 14.8833 2.01054C14.8298 1.97582 14.7577 1.95845 14.6669 1.95845H12.9393L13.4297 5.40721C13.4821 5.73305 13.6193 6.00362 13.8416 6.21891C14.0638 6.43419 14.3293 6.54183 14.638 6.54183ZM3.22779 14.0418H14.7983C14.8731 14.0418 14.9345 14.0178 14.9826 13.9697C15.0307 13.9216 15.0547 13.8602 15.0547 13.7854V7.71808C14.9639 7.75119 14.8881 7.77175 14.8272 7.77977C14.7663 7.78778 14.7032 7.79179 14.638 7.79179C14.263 7.79179 13.9332 7.72395 13.6485 7.58827C13.3637 7.45259 13.0878 7.23517 12.8208 6.93602C12.5868 7.1967 12.3101 7.4045 11.9906 7.55941C11.6712 7.71433 11.3069 7.79179 10.8977 7.79179C10.544 7.79179 10.2107 7.71834 9.89767 7.57143C9.58464 7.42453 9.28977 7.21273 9.01304 6.93602C8.75557 7.21273 8.4639 7.42453 8.13804 7.57143C7.8122 7.71834 7.48207 7.79179 7.14767 7.79179C6.7716 7.79179 6.41904 7.72368 6.08998 7.58748C5.76091 7.45125 5.47138 7.2341 5.22138 6.93602C4.87094 7.28645 4.54803 7.51668 4.25263 7.62673C3.95722 7.73677 3.66903 7.79179 3.38804 7.79179C3.32288 7.79179 3.25557 7.78778 3.18613 7.77977C3.11667 7.77175 3.04508 7.75119 2.97138 7.71808V13.7854C2.97138 13.8602 2.99541 13.9216 3.04348 13.9697C3.09156 14.0178 3.153 14.0418 3.22779 14.0418Z" fill="#2C2C2C"/>
</svg>
