<svg width="17" height="16" viewBox="0 0 17 16" fill="none" xmlns="http://www.w3.org/2000/svg">
<path d="M15.8045 7.14437V13.7854C15.8045 14.2063 15.6586 14.5626 15.367 14.8543C15.0753 15.146 14.719 15.2918 14.298 15.2918H2.72755C2.30662 15.2918 1.95032 15.146 1.65865 14.8543C1.36699 14.5626 1.22115 14.2063 1.22115 13.7854V7.12835C0.88568 6.8527 0.633805 6.49506 0.465527 6.05543C0.297263 5.6158 0.293791 5.14117 0.45511 4.63156L1.29807 1.87835C1.40918 1.52793 1.59775 1.24535 1.86378 1.0306C2.1298 0.815864 2.44765 0.708496 2.8173 0.708496H14.1923C14.5619 0.708496 14.8777 0.811059 15.1394 1.01618C15.4012 1.22131 15.5919 1.50336 15.7115 1.86233L16.5705 4.63156C16.7318 5.14117 16.7283 5.61419 16.5601 6.05062C16.3918 6.48705 16.1399 6.85163 15.8045 7.14437ZM10.3461 6.54183C10.8013 6.54183 11.1434 6.40267 11.3726 6.12435C11.6018 5.84605 11.6955 5.54717 11.6538 5.22773L11.1474 1.95845H9.1378V5.25014C9.1378 5.60057 9.25639 5.90346 9.49357 6.15881C9.73075 6.41416 10.0149 6.54183 10.3461 6.54183ZM6.59613 6.54183C6.97969 6.54183 7.29086 6.41416 7.52965 6.15881C7.76843 5.90346 7.88782 5.60057 7.88782 5.25014V1.95845H5.87817L5.37176 5.25977C5.3269 5.55571 5.41985 5.84337 5.65061 6.12275C5.88139 6.40214 6.19656 6.54183 6.59613 6.54183ZM2.8878 6.54183C3.19656 6.54183 3.46206 6.43419 3.6843 6.21891C3.90652 6.00362 4.0438 5.73305 4.09615 5.40721L4.58655 1.95845H2.8173C2.72648 1.95845 2.65436 1.97849 2.60094 2.01856C2.54751 2.05863 2.50744 2.11873 2.48074 2.19887L1.67946 4.91039C1.56941 5.26831 1.62122 5.62969 1.8349 5.99454C2.04858 6.3594 2.39955 6.54183 2.8878 6.54183ZM14.1378 6.54183C14.5887 6.54183 14.9338 6.36475 15.1731 6.01058C15.4124 5.6564 15.4701 5.28967 15.3462 4.91039L14.5032 2.18283C14.4765 2.1027 14.4364 2.04527 14.383 2.01054C14.3296 1.97582 14.2575 1.95845 14.1667 1.95845H12.4391L12.9295 5.40721C12.9818 5.73305 13.1191 6.00362 13.3413 6.21891C13.5635 6.43419 13.829 6.54183 14.1378 6.54183ZM2.72755 14.0418H14.298C14.3729 14.0418 14.4343 14.0178 14.4824 13.9697C14.5304 13.9216 14.5545 13.8602 14.5545 13.7854V7.71808C14.4637 7.75119 14.3878 7.77175 14.3269 7.77977C14.266 7.78778 14.203 7.79179 14.1378 7.79179C13.7628 7.79179 13.4329 7.72395 13.1482 7.58827C12.8635 7.45259 12.5876 7.23517 12.3205 6.93602C12.0865 7.1967 11.8098 7.4045 11.4904 7.55941C11.1709 7.71433 10.8066 7.79179 10.3974 7.79179C10.0438 7.79179 9.71045 7.71834 9.39742 7.57143C9.0844 7.42453 8.78952 7.21273 8.5128 6.93602C8.25533 7.21273 7.96366 7.42453 7.6378 7.57143C7.31195 7.71834 6.98183 7.79179 6.64742 7.79179C6.27135 7.79179 5.91879 7.72368 5.58974 7.58748C5.26067 7.45125 4.97113 7.2341 4.72113 6.93602C4.3707 7.28645 4.04778 7.51668 3.75238 7.62673C3.45698 7.73677 3.16878 7.79179 2.8878 7.79179C2.82263 7.79179 2.75533 7.78778 2.68588 7.77977C2.61642 7.77175 2.54484 7.75119 2.47113 7.71808V13.7854C2.47113 13.8602 2.49517 13.9216 2.54324 13.9697C2.59132 14.0178 2.65276 14.0418 2.72755 14.0418Z" fill="#8D8D8D"/>
</svg>
