              <svg
                xmlns="http://www.w3.org/2000/svg"
                viewBox="0 0 20 20"
                fill="none"
                className="w-4 h-4 md:w-5 md:h-5"
              >
                <g clip-path="url(#clip0_171_6955)">
                  <path
                    d="M2.35847 16.2152C1.91676 16.0039 1.60468 15.6009 1.53685 15.116C1.41456 14.2418 1.25 12.5851 1.25 10.0001C1.25 7.41514 1.41456 5.75848 1.53685 4.88427L1.53717 4.88202C3.73825 5.94489 8.66592 8.25014 10 8.25014C11.3341 8.25014 16.2617 5.94489 18.4628 4.88202L18.4632 4.88427C18.5854 5.75848 18.75 7.41514 18.75 10.0001C18.75 12.5851 18.5854 14.2418 18.4632 15.116C18.3953 15.6009 18.0832 16.0039 17.6415 16.2152C16.0524 16.9754 12.1157 18.7501 10 18.7501C7.88429 18.7501 3.94759 16.9754 2.35847 16.2152Z"
                    fill="#30B750"
                  />
                  <path
                    d="M18.4628 4.88192C16.2618 5.94479 11.3341 8.25004 10 8.25004C8.66592 8.25004 3.73825 5.94475 1.53717 4.88188C1.60565 4.39796 1.91744 3.99593 2.35847 3.78495C3.9476 3.02478 7.88429 1.25 10 1.25C12.1157 1.25 16.0524 3.02478 17.6415 3.78495C18.0826 3.99593 18.3944 4.39796 18.4628 4.88192Z"
                    fill="white"
                  />
                  <path
                    d="M1.53685 15.1159C1.60468 15.6008 1.91676 16.0037 2.35847 16.215C3.94759 16.9752 7.88429 18.75 10 18.75C12.1157 18.75 16.0524 16.9752 17.6415 16.215C18.0832 16.0037 18.3953 15.6008 18.4632 15.1159C18.5854 14.2417 18.75 12.585 18.75 10C18.75 7.415 18.5854 5.75833 18.4632 4.88412C18.3953 4.39921 18.0832 3.99625 17.6415 3.78495C16.0524 3.02478 12.1157 1.25 10 1.25C7.88429 1.25 3.94759 3.02478 2.35847 3.78495C1.91676 3.99625 1.60468 4.39921 1.53685 4.88412C1.41456 5.75833 1.25 7.415 1.25 10C1.25 12.585 1.41456 14.2417 1.53685 15.1159Z"
                    stroke="#23963E"
                    stroke-linejoin="round"
                  />
                  <path
                    d="M18.4507 4.89832C17.0972 5.56473 11.5475 8.24998 9.99998 8.24998C8.45248 8.24998 2.90273 5.56473 1.54926 4.89832"
                    stroke="#23963E"
                    stroke-linecap="round"
                    stroke-linejoin="round"
                  />
                  <path
                    d="M10 8.24994V18.6459"
                    stroke="#23963E"
                    stroke-linecap="round"
                    stroke-linejoin="round"
                  />
                </g>
                <defs>
                  <clipPath id="clip0_171_6955">
                    <rect width="20" height="20" fill="white" />
                  </clipPath>
                </defs>
              </svg>