<svg width="98" height="98" viewBox="0 0 98 98" fill="none" xmlns="http://www.w3.org/2000/svg">
<path fill-rule="evenodd" clip-rule="evenodd" d="M21.1034 35.8245C33.9204 45.1611 39.7762 61.472 35.8244 76.8287C45.161 64.0117 61.4718 58.156 76.8286 62.1078C64.0116 52.7712 58.1558 36.4603 62.1076 21.1036C52.771 33.9206 36.4602 39.7763 21.1034 35.8245ZM15.9783 32.6686C34.0506 40.4128 55.0353 32.8791 64.0552 15.4085L65.2635 15.9785C57.5193 34.0507 65.0531 55.0354 82.5236 64.0553L81.9537 65.2637C63.8815 57.5195 42.8967 65.0532 33.8769 82.5238L32.6685 81.9538C40.4127 63.8816 32.8789 42.8969 15.4084 33.877L15.9783 32.6686Z" fill="white"/>
<path fill-rule="evenodd" clip-rule="evenodd" d="M21.1034 35.8245C33.9204 45.1611 39.7762 61.472 35.8244 76.8287C45.161 64.0117 61.4718 58.156 76.8286 62.1078C64.0116 52.7712 58.1558 36.4603 62.1076 21.1036C52.771 33.9206 36.4602 39.7763 21.1034 35.8245ZM15.9783 32.6686C34.0506 40.4128 55.0353 32.8791 64.0552 15.4085L65.2635 15.9785C57.5193 34.0507 65.0531 55.0354 82.5236 64.0553L81.9537 65.2637C63.8815 57.5195 42.8967 65.0532 33.8769 82.5238L32.6685 81.9538C40.4127 63.8816 32.8789 42.8969 15.4084 33.877L15.9783 32.6686Z" fill="white"/>
<path fill-rule="evenodd" clip-rule="evenodd" d="M41.9234 74.0917C45.9986 68.7838 50.6847 60.9357 54.9901 51.8074C59.2956 42.6791 62.3711 34.0713 63.8749 27.5506C64.6293 24.2795 64.9711 21.6052 64.9055 19.6815C64.8727 18.7177 64.7394 18.0169 64.5543 17.5464C64.3724 17.0841 64.1851 16.9478 64.0891 16.9025C63.9931 16.8572 63.7688 16.7994 63.2963 16.9531C62.8155 17.1095 62.19 17.4524 61.4254 18.0401C59.8993 19.213 58.0531 21.1777 56.0087 23.8405C51.9335 29.1483 47.2474 36.9965 42.942 46.1248C38.6365 55.253 35.561 63.8608 34.0572 70.3815C33.3028 73.6527 32.961 76.327 33.0266 78.2506C33.0594 79.2144 33.1927 79.9152 33.3778 80.3857C33.5597 80.848 33.747 80.9844 33.843 81.0296C33.939 81.0749 34.1633 81.1327 34.6358 80.979C35.1166 80.8227 35.7421 80.4798 36.5067 79.892C38.0328 78.7191 39.879 76.7544 41.9234 74.0917ZM33.2727 82.2388C37.2675 84.123 47.5321 70.7537 56.1993 52.3777C64.8665 34.0017 68.6542 17.5775 64.6594 15.6933C60.6646 13.8092 50.4001 27.1784 41.7328 45.5545C33.0656 63.9305 29.2779 80.3546 33.2727 82.2388Z" fill="white"/>
<path fill-rule="evenodd" clip-rule="evenodd" d="M41.9234 74.0917C45.9986 68.7838 50.6847 60.9357 54.9901 51.8074C59.2956 42.6791 62.3711 34.0713 63.8749 27.5506C64.6293 24.2795 64.9711 21.6052 64.9055 19.6815C64.8727 18.7177 64.7394 18.0169 64.5543 17.5464C64.3724 17.0841 64.1851 16.9478 64.0891 16.9025C63.9931 16.8572 63.7688 16.7994 63.2963 16.9531C62.8155 17.1095 62.19 17.4524 61.4254 18.0401C59.8993 19.213 58.0531 21.1777 56.0087 23.8405C51.9335 29.1483 47.2474 36.9965 42.942 46.1248C38.6365 55.253 35.561 63.8608 34.0572 70.3815C33.3028 73.6527 32.961 76.327 33.0266 78.2506C33.0594 79.2144 33.1927 79.9152 33.3778 80.3857C33.5597 80.848 33.747 80.9844 33.843 81.0296C33.939 81.0749 34.1633 81.1327 34.6358 80.979C35.1166 80.8227 35.7421 80.4798 36.5067 79.892C38.0328 78.7191 39.879 76.7544 41.9234 74.0917ZM33.2727 82.2388C37.2675 84.123 47.5321 70.7537 56.1993 52.3777C64.8665 34.0017 68.6542 17.5775 64.6594 15.6933C60.6646 13.8092 50.4001 27.1784 41.7328 45.5545C33.0656 63.9305 29.2779 80.3546 33.2727 82.2388Z" fill="white"/>
<path fill-rule="evenodd" clip-rule="evenodd" d="M23.8405 41.9235C29.1483 45.9987 36.9965 50.6847 46.1248 54.9902C55.2531 59.2956 63.8609 62.3712 70.3815 63.8749C73.6527 64.6294 76.327 64.9711 78.2506 64.9056C79.2145 64.8728 79.9153 64.7395 80.3857 64.5544C80.8481 64.3724 80.9844 64.1852 81.0297 64.0892C81.075 63.9932 81.1327 63.7689 80.9791 63.2964C80.8227 62.8156 80.4798 62.19 79.8921 61.4254C78.7191 59.8994 76.7544 58.0531 74.0917 56.0087C68.7839 51.9335 60.9357 47.2475 51.8074 42.942C42.6791 38.6366 34.0713 35.561 27.5506 34.0572C24.2795 33.3028 21.6052 32.9611 19.6815 33.0266C18.7177 33.0594 18.0169 33.1927 17.5464 33.3778C17.0841 33.5598 16.9478 33.747 16.9025 33.843C16.8572 33.939 16.7994 34.1633 16.9531 34.6358C17.1095 35.1166 17.4524 35.7422 18.0401 36.5068C19.213 38.0328 21.1777 39.8791 23.8405 41.9235ZM15.6934 33.2727C13.8092 37.2675 27.1785 47.5321 45.5545 56.1993C63.9305 64.8665 80.3546 68.6543 82.2388 64.6595C84.123 60.6647 70.7537 50.4001 52.3777 41.7329C34.0017 33.0657 17.5775 29.2779 15.6934 33.2727Z" fill="white"/>
<path fill-rule="evenodd" clip-rule="evenodd" d="M23.8405 41.9235C29.1483 45.9987 36.9965 50.6847 46.1248 54.9902C55.2531 59.2956 63.8609 62.3712 70.3815 63.8749C73.6527 64.6294 76.327 64.9711 78.2506 64.9056C79.2145 64.8728 79.9153 64.7395 80.3857 64.5544C80.8481 64.3724 80.9844 64.1852 81.0297 64.0892C81.075 63.9932 81.1327 63.7689 80.9791 63.2964C80.8227 62.8156 80.4798 62.19 79.8921 61.4254C78.7191 59.8994 76.7544 58.0531 74.0917 56.0087C68.7839 51.9335 60.9357 47.2475 51.8074 42.942C42.6791 38.6366 34.0713 35.561 27.5506 34.0572C24.2795 33.3028 21.6052 32.9611 19.6815 33.0266C18.7177 33.0594 18.0169 33.1927 17.5464 33.3778C17.0841 33.5598 16.9478 33.747 16.9025 33.843C16.8572 33.939 16.7994 34.1633 16.9531 34.6358C17.1095 35.1166 17.4524 35.7422 18.0401 36.5068C19.213 38.0328 21.1777 39.8791 23.8405 41.9235ZM15.6934 33.2727C13.8092 37.2675 27.1785 47.5321 45.5545 56.1993C63.9305 64.8665 80.3546 68.6543 82.2388 64.6595C84.123 60.6647 70.7537 50.4001 52.3777 41.7329C34.0017 33.0657 17.5775 29.2779 15.6934 33.2727Z" fill="white"/>
</svg>
