<svg width="18" height="18" viewBox="0 0 18 18" fill="none" xmlns="http://www.w3.org/2000/svg">
<g id="Document Align Center 4">
<path id="Vector" d="M15.0149 11.5513L14.9054 10.8599L15.0149 11.5513ZM11.5513 15.0149L10.8599 14.9054L11.5513 15.0149ZM3.21756 15.7042L3.62901 15.1379L3.21756 15.7042ZM2.29576 14.7824L2.86207 14.371L2.29576 14.7824ZM15.7042 14.7824L16.2705 15.1939L15.7042 14.7824ZM14.7824 15.7042L15.1939 16.2705L14.7824 15.7042ZM14.7824 2.29576L14.371 2.86207L14.7824 2.29576ZM15.7042 3.21756L15.1379 3.62901L15.7042 3.21756ZM3.21756 2.29576L3.62901 2.86207L3.21756 2.29576ZM2.29576 3.21756L2.86207 3.62901L2.29576 3.21756ZM16.4759 11.5L17.1755 11.524L16.4759 11.5ZM11.5 16.4759L11.524 17.1755L11.5 16.4759ZM5.66667 8.3C5.28007 8.3 4.96667 8.6134 4.96667 9C4.96667 9.3866 5.28007 9.7 5.66667 9.7V8.3ZM12.3333 9.7C12.7199 9.7 13.0333 9.3866 13.0333 9C13.0333 8.6134 12.7199 8.3 12.3333 8.3V9.7ZM7.33333 4.96667C6.94673 4.96667 6.63333 5.28007 6.63333 5.66667C6.63333 6.05327 6.94673 6.36667 7.33333 6.36667V4.96667ZM10.6667 6.36667C11.0533 6.36667 11.3667 6.05327 11.3667 5.66667C11.3667 5.28007 11.0533 4.96667 10.6667 4.96667V6.36667ZM14.9054 10.8599C12.8229 11.1897 11.1897 12.8229 10.8599 14.9054L12.2427 15.1244C12.4776 13.641 13.641 12.4776 15.1244 12.2427L14.9054 10.8599ZM9 15.8C7.42202 15.8 6.29476 15.799 5.42312 15.7046C4.56457 15.6116 4.03743 15.4347 3.62901 15.1379L2.80611 16.2705C3.49296 16.7696 4.29466 16.9905 5.27232 17.0965C6.23688 17.201 7.4532 17.2 9 17.2V15.8ZM0.8 9C0.8 10.5468 0.799039 11.7631 0.903543 12.7277C1.00947 13.7053 1.23042 14.507 1.72945 15.1939L2.86207 14.371C2.56534 13.9626 2.38842 13.4354 2.2954 12.5769C2.20096 11.7052 2.2 10.578 2.2 9H0.8ZM3.62901 15.1379C3.33471 14.9241 3.0759 14.6653 2.86207 14.371L1.72945 15.1939C2.02962 15.607 2.39296 15.9704 2.80611 16.2705L3.62901 15.1379ZM15.1379 14.371C14.9241 14.6653 14.6653 14.9241 14.371 15.1379L15.1939 16.2705C15.607 15.9704 15.9704 15.607 16.2705 15.1939L15.1379 14.371ZM9 2.2C10.578 2.2 11.7052 2.20096 12.5769 2.2954C13.4354 2.38842 13.9626 2.56534 14.371 2.86207L15.1939 1.72945C14.507 1.23042 13.7053 1.00947 12.7277 0.903543C11.7631 0.799039 10.5468 0.8 9 0.8V2.2ZM17.2 9C17.2 7.4532 17.201 6.23688 17.0965 5.27232C16.9905 4.29466 16.7696 3.49296 16.2705 2.80611L15.1379 3.62901C15.4347 4.03743 15.6116 4.56457 15.7046 5.42312C15.799 6.29476 15.8 7.42202 15.8 9H17.2ZM14.371 2.86207C14.6653 3.0759 14.9241 3.33471 15.1379 3.62901L16.2705 2.80611C15.9704 2.39296 15.607 2.02962 15.1939 1.72945L14.371 2.86207ZM9 0.8C7.4532 0.8 6.23688 0.799039 5.27232 0.903543C4.29466 1.00947 3.49296 1.23042 2.80611 1.72945L3.62901 2.86207C4.03743 2.56534 4.56457 2.38842 5.42312 2.2954C6.29476 2.20096 7.42202 2.2 9 2.2V0.8ZM2.2 9C2.2 7.42202 2.20096 6.29476 2.2954 5.42312C2.38842 4.56457 2.56534 4.03743 2.86207 3.62901L1.72945 2.80611C1.23042 3.49296 1.00947 4.29466 0.903543 5.27232C0.799039 6.23688 0.8 7.4532 0.8 9H2.2ZM2.80611 1.72945C2.39296 2.02962 2.02962 2.39296 1.72945 2.80611L2.86207 3.62901C3.0759 3.33471 3.33471 3.0759 3.62901 2.86207L2.80611 1.72945ZM15.8 9C15.8 9.97798 15.7999 10.7869 15.7763 11.476L17.1755 11.524C17.2001 10.8058 17.2 9.97023 17.2 9H15.8ZM15.7763 11.476C15.7234 13.0209 15.5506 13.8029 15.1379 14.371L16.2705 15.1939C16.9532 14.2543 17.122 13.0861 17.1755 11.524L15.7763 11.476ZM16.4759 10.8C15.7434 10.8 15.2938 10.7984 14.9054 10.8599L15.1244 12.2427C15.377 12.2027 15.6921 12.2 16.4759 12.2L16.4759 10.8ZM9 17.2C9.97023 17.2 10.8058 17.2001 11.524 17.1755L11.476 15.7763C10.7869 15.7999 9.97798 15.8 9 15.8V17.2ZM11.524 17.1755C13.0861 17.122 14.2543 16.9532 15.1939 16.2705L14.371 15.1379C13.8029 15.5506 13.0209 15.7234 11.476 15.7763L11.524 17.1755ZM12.2 16.4759C12.2 15.6921 12.2027 15.377 12.2427 15.1244L10.8599 14.9054C10.7984 15.2938 10.8 15.7434 10.8 16.4759L12.2 16.4759ZM5.66667 9.7H12.3333V8.3H5.66667V9.7ZM7.33333 6.36667H10.6667V4.96667H7.33333V6.36667Z" fill="#F1FCF3"/>
</g>
</svg>
