<svg width="14" height="16" viewBox="0 0 14 16" fill="none" xmlns="http://www.w3.org/2000/svg">
<path d="M3.875 12.7915H10.125V11.5416H3.875V12.7915ZM3.875 9.45821H10.125V8.20825H3.875V9.45821ZM2.25642 15.9165C1.83547 15.9165 1.47917 15.7707 1.1875 15.479C0.895833 15.1874 0.75 14.8311 0.75 14.4101V1.58967C0.75 1.16872 0.895833 0.812419 1.1875 0.520752C1.47917 0.229085 1.83547 0.083252 2.25642 0.083252H8.875L13.25 4.45821V14.4101C13.25 14.8311 13.1041 15.1874 12.8125 15.479C12.5208 15.7707 12.1645 15.9165 11.7435 15.9165H2.25642ZM8.25 5.08321V1.33323H2.25642C2.19231 1.33323 2.13353 1.35994 2.0801 1.41336C2.02669 1.46679 1.99998 1.52556 1.99998 1.58967V14.4101C1.99998 14.4742 2.02669 14.533 2.0801 14.5864C2.13353 14.6399 2.19231 14.6666 2.25642 14.6666H11.7435C11.8077 14.6666 11.8664 14.6399 11.9199 14.5864C11.9733 14.533 12 14.4742 12 14.4101V5.08321H8.25Z" fill="#8D8D8D"/>
</svg>
