<svg width="20" height="20" viewBox="0 0 20 20" fill="none" xmlns="http://www.w3.org/2000/svg">
<path d="M16.3283 14.5051C16.055 14.2318 15.6117 14.2318 15.3384 14.5051C15.065 14.7785 15.065 15.2217 15.3384 15.4951L16.3283 14.5051ZM18.6716 18.8284C18.945 19.1017 19.3882 19.1018 19.6616 18.8284C19.9349 18.555 19.9349 18.1118 19.6616 17.8384L18.6716 18.8284ZM15.3384 15.4951L18.6716 18.8284L19.6616 17.8384L16.3283 14.5051L15.3384 15.4951ZM9.16663 15.1334C5.41109 15.1334 2.36663 12.0889 2.36663 8.33337H0.966626C0.966626 12.8621 4.63789 16.5334 9.16663 16.5334V15.1334ZM15.9666 8.33337C15.9666 12.0889 12.9222 15.1334 9.16663 15.1334V16.5334C13.6954 16.5334 17.3666 12.8621 17.3666 8.33337H15.9666ZM9.16663 1.53337C12.9222 1.53337 15.9666 4.57784 15.9666 8.33337H17.3666C17.3666 3.80464 13.6954 0.133374 9.16663 0.133374V1.53337ZM9.16663 0.133374C4.63789 0.133374 0.966626 3.80464 0.966626 8.33337H2.36663C2.36663 4.57784 5.41109 1.53337 9.16663 1.53337V0.133374Z" fill="#F1FCF3"/>
</svg>
