<svg width="40" height="40" viewBox="0 0 40 40" fill="none" xmlns="http://www.w3.org/2000/svg">
<rect width="40" height="40" rx="20" fill="#00BB34"/>
<g clip-path="url(#clip0_54_325)">
<path d="M20.5488 22.4462V28.4462C20.5488 28.9962 20.9988 29.4462 21.5488 29.4462H27.5488C28.0988 29.4462 28.5488 28.9962 28.5488 28.4462V22.4462C28.5488 21.8962 28.0988 21.4462 27.5488 21.4462H21.5488C20.9988 21.4462 20.5488 21.8962 20.5488 22.4462ZM11.5488 29.4462H17.5488C18.0988 29.4462 18.5488 28.9962 18.5488 28.4462V22.4462C18.5488 21.8962 18.0988 21.4462 17.5488 21.4462H11.5488C10.9988 21.4462 10.5488 21.8962 10.5488 22.4462V28.4462C10.5488 28.9962 10.9988 29.4462 11.5488 29.4462ZM10.5488 12.4462V18.4462C10.5488 18.9962 10.9988 19.4462 11.5488 19.4462H17.5488C18.0988 19.4462 18.5488 18.9962 18.5488 18.4462V12.4462C18.5488 11.8962 18.0988 11.4462 17.5488 11.4462H11.5488C10.9988 11.4462 10.5488 11.8962 10.5488 12.4462ZM23.4988 10.8462L19.2488 15.0862C18.8588 15.4762 18.8588 16.1062 19.2488 16.4962L23.4988 20.7462C23.8888 21.1362 24.5188 21.1362 24.9088 20.7462L29.1588 16.4962C29.5488 16.1062 29.5488 15.4762 29.1588 15.0862L24.9188 10.8462C24.5288 10.4562 23.8888 10.4562 23.4988 10.8462Z" fill="#F4F4F6"/>
</g>
<defs>
<clipPath id="clip0_54_325">
<rect width="24" height="24" fill="white" transform="translate(8 8)"/>
</clipPath>
</defs>
</svg>
