<svg width="40" height="40" viewBox="0 0 40 40" fill="none" xmlns="http://www.w3.org/2000/svg">
<rect width="40" height="40" rx="20" fill="#00BB34"/>
<g clip-path="url(#clip0_54_287)">
<path d="M28 17.5V15.5C28 14.4 27.1 13.5 26 13.5H23C23 11.84 21.66 10.5 20 10.5C18.34 10.5 17 11.84 17 13.5H14C12.9 13.5 12 14.4 12 15.5V17.5C10.34 17.5 9 18.84 9 20.5C9 22.16 10.34 23.5 12 23.5V27.5C12 28.6 12.9 29.5 14 29.5H26C27.1 29.5 28 28.6 28 27.5V23.5C29.66 23.5 31 22.16 31 20.5C31 18.84 29.66 17.5 28 17.5ZM15.5 20C15.5 19.17 16.17 18.5 17 18.5C17.83 18.5 18.5 19.17 18.5 20C18.5 20.83 17.83 21.5 17 21.5C16.17 21.5 15.5 20.83 15.5 20ZM23 25.5H17C16.45 25.5 16 25.05 16 24.5C16 23.95 16.45 23.5 17 23.5H23C23.55 23.5 24 23.95 24 24.5C24 25.05 23.55 25.5 23 25.5ZM23 21.5C22.17 21.5 21.5 20.83 21.5 20C21.5 19.17 22.17 18.5 23 18.5C23.83 18.5 24.5 19.17 24.5 20C24.5 20.83 23.83 21.5 23 21.5Z" fill="#F4F4F6"/>
</g>
<defs>
<clipPath id="clip0_54_287">
<rect width="24" height="24" fill="white" transform="translate(8 8)"/>
</clipPath>
</defs>
</svg>
