<svg width="40" height="40" viewBox="0 0 40 40" fill="none" xmlns="http://www.w3.org/2000/svg">
<rect width="40" height="40" rx="20" fill="#0D0D0D"/>
<g clip-path="url(#clip0_54_275)">
<path d="M22 17H18C17.45 17 17 17.45 17 18V22C17 22.55 17.45 23 18 23H22C22.55 23 23 22.55 23 22V18C23 17.45 22.55 17 22 17ZM21 21H19V19H21V21ZM29 18C29 17.45 28.55 17 28 17H27V15C27 13.9 26.1 13 25 13H23V12C23 11.45 22.55 11 22 11C21.45 11 21 11.45 21 12V13H19V12C19 11.45 18.55 11 18 11C17.45 11 17 11.45 17 12V13H15C13.9 13 13 13.9 13 15V17H12C11.45 17 11 17.45 11 18C11 18.55 11.45 19 12 19H13V21H12C11.45 21 11 21.45 11 22C11 22.55 11.45 23 12 23H13V25C13 26.1 13.9 27 15 27H17V28C17 28.55 17.45 29 18 29C18.55 29 19 28.55 19 28V27H21V28C21 28.55 21.45 29 22 29C22.55 29 23 28.55 23 28V27H25C26.1 27 27 26.1 27 25V23H28C28.55 23 29 22.55 29 22C29 21.45 28.55 21 28 21H27V19H28C28.55 19 29 18.55 29 18ZM24 25H16C15.45 25 15 24.55 15 24V16C15 15.45 15.45 15 16 15H24C24.55 15 25 15.45 25 16V24C25 24.55 24.55 25 24 25Z" fill="#F4F4F6"/>
</g>
<defs>
<clipPath id="clip0_54_275">
<rect width="24" height="24" fill="white" transform="translate(8 8)"/>
</clipPath>
</defs>
</svg>
