<svg width="40" height="40" viewBox="0 0 40 40" fill="none" xmlns="http://www.w3.org/2000/svg">
<rect width="40" height="40" rx="20" fill="#00BB34"/>
<g clip-path="url(#clip0_54_350)">
<path d="M20 10C14.48 10 10 14.48 10 20C10 25.52 14.48 30 20 30C25.52 30 30 25.52 30 20C30 14.48 25.52 10 20 10ZM16 25.5C14.62 25.5 13.5 24.38 13.5 23C13.5 21.62 14.62 20.5 16 20.5C17.38 20.5 18.5 21.62 18.5 23C18.5 24.38 17.38 25.5 16 25.5ZM17.5 16C17.5 14.62 18.62 13.5 20 13.5C21.38 13.5 22.5 14.62 22.5 16C22.5 17.38 21.38 18.5 20 18.5C18.62 18.5 17.5 17.38 17.5 16ZM24 25.5C22.62 25.5 21.5 24.38 21.5 23C21.5 21.62 22.62 20.5 24 20.5C25.38 20.5 26.5 21.62 26.5 23C26.5 24.38 25.38 25.5 24 25.5Z" fill="#F4F4F6"/>
</g>
<defs>
<clipPath id="clip0_54_350">
<rect width="24" height="24" fill="white" transform="translate(8 8)"/>
</clipPath>
</defs>
</svg>
