<svg width="40" height="40" viewBox="0 0 40 40" fill="none" xmlns="http://www.w3.org/2000/svg">
<rect width="40" height="40" rx="20" fill="#00BB34"/>
<g clip-path="url(#clip0_54_313)">
<path d="M20.0017 10.5C19.5417 10.5 19.0717 10.54 18.6017 10.64C15.8418 11.17 13.6418 13.4 13.1218 16.16C12.6418 18.77 13.6018 21.17 15.3418 22.72C15.7718 23.1 16.0018 23.63 16.0018 24.19V26.5C16.0018 27.6 16.9018 28.5 18.0017 28.5H18.2817C18.6317 29.1 19.2617 29.5 20.0017 29.5C20.7417 29.5 21.3817 29.1 21.7217 28.5H22.0017C23.1017 28.5 24.0017 27.6 24.0017 26.5V24.19C24.0017 23.64 24.2217 23.1 24.6417 22.73C26.0917 21.45 27.0017 19.58 27.0017 17.5C27.0017 13.63 23.8717 10.5 20.0017 10.5ZM20.5017 21.5H19.5017V18.91L17.6718 17.09L18.3817 16.38L20.0017 18L21.6217 16.38L22.3317 17.09L20.5017 18.92V21.5ZM21.5017 26.5C21.4917 26.5 21.4817 26.49 21.4717 26.49V26.5H18.5317V26.49C18.5217 26.49 18.5117 26.5 18.5017 26.5C18.2217 26.5 18.0017 26.28 18.0017 26C18.0017 25.72 18.2217 25.5 18.5017 25.5C18.5117 25.5 18.5217 25.51 18.5317 25.51V25.5H21.4717V25.51C21.4817 25.51 21.4917 25.5 21.5017 25.5C21.7817 25.5 22.0017 25.72 22.0017 26C22.0017 26.28 21.7817 26.5 21.5017 26.5ZM21.5017 24.5H18.5017C18.2217 24.5 18.0017 24.28 18.0017 24C18.0017 23.72 18.2217 23.5 18.5017 23.5H21.5017C21.7817 23.5 22.0017 23.72 22.0017 24C22.0017 24.28 21.7817 24.5 21.5017 24.5Z" fill="#F4F4F6"/>
</g>
<defs>
<clipPath id="clip0_54_313">
<rect width="24" height="24" fill="white" transform="translate(8 8)"/>
</clipPath>
</defs>
</svg>
