<svg width="16" height="16" viewBox="0 0 16 16" fill="none" xmlns="http://www.w3.org/2000/svg">
<path d="M7.99098 12.6794C8.22892 12.6794 8.42989 12.5972 8.59389 12.4329C8.75788 12.2686 8.83987 12.0675 8.83987 11.8296C8.83987 11.5916 8.75773 11.3907 8.59343 11.2267C8.42914 11.0627 8.22802 10.9807 7.99008 10.9807C7.75214 10.9807 7.55117 11.0628 7.38718 11.2271C7.22318 11.3914 7.14118 11.5925 7.14118 11.8305C7.14118 12.0684 7.22333 12.2694 7.38762 12.4334C7.55191 12.5974 7.75303 12.6794 7.99098 12.6794ZM7.40079 9.6954H8.57385C8.58453 9.28515 8.64463 8.95743 8.75414 8.71223C8.86364 8.46705 9.1294 8.142 9.55141 7.73709C9.91786 7.37063 10.1986 7.03222 10.3936 6.72186C10.5885 6.4115 10.686 6.04497 10.686 5.62229C10.686 4.90503 10.4283 4.34474 9.91281 3.94142C9.39732 3.53811 8.78755 3.33646 8.08348 3.33646C7.38798 3.33646 6.81239 3.52209 6.35673 3.89336C5.90107 4.26461 5.57602 4.70183 5.38158 5.20502L6.45206 5.6345C6.55356 5.35779 6.72717 5.0883 6.97289 4.82602C7.21863 4.56373 7.58348 4.43259 8.06745 4.43259C8.55998 4.43259 8.92403 4.56747 9.1596 4.83725C9.39518 5.10702 9.51298 5.40376 9.51298 5.72748C9.51298 6.01059 9.43231 6.26967 9.27098 6.50471C9.10966 6.73975 8.904 6.96679 8.654 7.18582C8.107 7.6794 7.76138 8.07309 7.61714 8.3669C7.47291 8.6607 7.40079 9.10354 7.40079 9.6954ZM8.00154 15.9165C6.90659 15.9165 5.8774 15.7088 4.91396 15.2932C3.9505 14.8777 3.11243 14.3137 2.39975 13.6013C1.68705 12.889 1.12284 12.0513 0.7071 11.0882C0.291364 10.1252 0.0834961 9.09624 0.0834961 8.00129C0.0834961 6.90635 0.291274 5.87716 0.70683 4.91371C1.12239 3.95025 1.68634 3.11218 2.3987 2.3995C3.11108 1.68681 3.94878 1.12259 4.91181 0.706856C5.87482 0.29112 6.9038 0.083252 7.99875 0.083252C9.09369 0.083252 10.1229 0.29103 11.0863 0.706585C12.0498 1.12214 12.8879 1.6861 13.6005 2.39846C14.3132 3.11084 14.8774 3.94854 15.2932 4.91157C15.7089 5.87458 15.9168 6.90356 15.9168 7.9985C15.9168 9.09345 15.709 10.1226 15.2935 11.0861C14.8779 12.0495 14.3139 12.8876 13.6016 13.6003C12.8892 14.313 12.0515 14.8772 11.0885 15.2929C10.1255 15.7087 9.09648 15.9165 8.00154 15.9165ZM8.00014 14.6666C9.86125 14.6666 11.4376 14.0207 12.7293 12.7291C14.021 11.4374 14.6668 9.86101 14.6668 7.9999C14.6668 6.13879 14.021 4.5624 12.7293 3.27073C11.4376 1.97906 9.86125 1.33323 8.00014 1.33323C6.13903 1.33323 4.56264 1.97906 3.27098 3.27073C1.97931 4.5624 1.33348 6.13879 1.33348 7.9999C1.33348 9.86101 1.97931 11.4374 3.27098 12.7291C4.56264 14.0207 6.13903 14.6666 8.00014 14.6666Z" fill="#8D8D8D"/>
</svg>
