<svg width="20" height="20" viewBox="0 0 20 20" fill="none" xmlns="http://www.w3.org/2000/svg">
<g clip-path="url(#clip0_112_17523)">
<path d="M7.49999 7.50008L7.77941 6.66182C8.36573 4.90285 10.6863 4.52627 11.7988 6.00956C12.4504 6.87844 12.405 8.08487 11.6898 8.90224L10.9238 9.77768C10.3282 10.4583 9.99999 11.3319 9.99999 12.2362V12.5001M18.3333 10.0001C18.3333 14.6025 14.6024 18.3334 9.99999 18.3334C5.39762 18.3334 1.66666 14.6025 1.66666 10.0001C1.66666 5.39771 5.39762 1.66675 9.99999 1.66675C14.6024 1.66675 18.3333 5.39771 18.3333 10.0001Z" stroke="#F1FCF3" stroke-width="1.4" stroke-linecap="round"/>
<path d="M10.8333 15.0001C10.8333 15.4603 10.4602 15.8334 9.99999 15.8334C9.53975 15.8334 9.16666 15.4603 9.16666 15.0001C9.16666 14.5398 9.53975 14.1667 9.99999 14.1667C10.4602 14.1667 10.8333 14.5398 10.8333 15.0001Z" fill="#F1FCF3"/>
</g>
<defs>
<clipPath id="clip0_112_17523">
<rect width="20" height="20" fill="white"/>
</clipPath>
</defs>
</svg>
