<svg width="15" height="13" viewBox="0 0 15 13" fill="none" xmlns="http://www.w3.org/2000/svg">
<path d="M0.529541 10.5773C2.05748 10.6606 3.39359 10.3146 4.69663 9.39827C3.38036 9.18041 2.46757 8.5973 1.97149 7.39265C2.35513 7.34139 2.69247 7.4375 3.08933 7.28372C1.7929 6.73265 0.952866 5.90605 0.919794 4.47713C1.32989 4.50917 1.64077 4.77189 2.13024 4.73344C0.939641 3.60568 0.575842 2.37539 1.32327 0.882391C2.56679 2.26646 4.02197 3.2084 5.80125 3.65053C5.90047 3.67616 5.99306 3.70179 6.09228 3.72102C6.54868 3.82354 7.09106 4.0414 7.36887 4.00937C7.84511 3.9517 7.36887 3.41985 7.48793 2.72782C7.86495 0.57482 10.3123 -0.405564 12.1246 0.85676C12.6538 1.22841 13.0705 1.222 13.5931 0.99773C13.8642 0.882391 14.1421 0.767052 14.4662 0.632489C14.3934 1.24763 13.9039 1.58724 13.5137 2.04219C13.9568 2.13831 14.314 2.01656 14.7241 1.88841C14.5852 2.33054 14.2413 2.58044 13.9304 2.82393C13.6063 3.07384 13.4806 3.33655 13.4674 3.74665C13.2689 9.95574 5.98645 14.7551 1.00579 10.9361C0.522931 10.5645 0.992551 10.9361 0.529541 10.5773Z" fill="#F1FCF3"/>
</svg>
