<svg width="16" height="16" viewBox="0 0 18 18" fill="none" xmlns="http://www.w3.org/2000/svg">
<g id="Wallet">
<g id="Vector">
<path d="M12.0303 9.09473C11.6851 9.09473 11.4053 9.37456 11.4053 9.71973C11.4053 10.0649 11.6851 10.3447 12.0303 10.3447H14.303C14.6482 10.3447 14.928 10.0649 14.928 9.71973C14.928 9.37456 14.6482 9.09473 14.303 9.09473H12.0303Z" fill="#F1FCF3"/>
<path fill-rule="evenodd" clip-rule="evenodd" d="M15.3729 1.81458C15.4374 2.18455 15.453 2.62421 15.4573 3.12722C15.5296 3.16493 15.6006 3.20507 15.6703 3.24779C16.315 3.64289 16.8571 4.18497 17.2522 4.82972C17.6872 5.5396 17.8454 6.36233 17.9108 7.40802C17.9583 8.16875 17.9583 9.09404 17.9583 10.2305V10.254C17.9583 10.9057 17.9583 11.4862 17.9497 12.0028C17.9231 13.6094 17.819 14.7454 17.2522 15.6703C16.8571 16.3151 16.315 16.8572 15.6703 17.2523C15.0546 17.6296 14.3562 17.7977 13.5032 17.8788C12.6664 17.9584 11.619 17.9584 10.2828 17.9584H7.71717C6.38104 17.9584 5.33354 17.9584 4.49673 17.8788C3.64378 17.7977 2.94536 17.6296 2.32967 17.2523C1.68493 16.8572 1.14284 16.3151 0.747744 15.6703C0.370452 15.0546 0.2023 14.3562 0.1212 13.5033C0.0416349 12.6664 0.0416391 11.619 0.0416444 10.2828L0.0417108 9.84472C0.0307298 9.43291 0.0341021 8.97254 0.0377381 8.47614C0.0396547 8.21451 0.0416445 7.94286 0.0416445 7.66305L0.0416444 7.62691C0.0416378 6.20005 0.0416327 5.0802 0.133997 4.19142C0.228203 3.28492 0.424102 2.54554 0.865915 1.91157C1.13285 1.52854 1.45669 1.19063 1.82612 0.910803C2.44138 0.444775 3.16136 0.237604 4.03938 0.138431C4.89599 0.0416752 5.97362 0.041682 7.3387 0.0416906L11.8954 0.0416882C12.5609 0.0416593 13.1249 0.0416348 13.5746 0.104663C14.0549 0.171983 14.4957 0.321743 14.8483 0.689421C15.1545 1.00857 15.2995 1.39359 15.3729 1.81458ZM11.8515 1.29169C12.5729 1.29169 13.0484 1.29313 13.4011 1.34256C13.733 1.38909 13.8621 1.46701 13.9462 1.55471C14.024 1.63582 14.0942 1.75826 14.1414 2.02924C14.173 2.21043 14.1903 2.43188 14.1994 2.71518C13.8554 2.65223 13.4842 2.61343 13.0799 2.58848C12.3215 2.54169 11.3999 2.54169 10.2693 2.54169H7.71718C6.38102 2.54169 5.33356 2.54168 4.49673 2.62125C3.64378 2.70235 2.94536 2.8705 2.32967 3.24779C1.99777 3.45118 1.69307 3.69352 1.42163 3.96876C1.5131 3.36265 1.66289 2.95423 1.89145 2.62626C2.08443 2.34934 2.31727 2.10689 2.58086 1.90723C2.94564 1.63093 3.41468 1.46694 4.17968 1.38053C4.95797 1.29262 5.96503 1.29169 7.37754 1.29169H11.8515ZM2.9828 4.31359C3.36907 4.07688 3.85359 3.93803 4.61505 3.86563C5.38581 3.79235 6.37395 3.79169 7.74998 3.79169H10.25C11.4038 3.79169 12.2874 3.79196 13.0029 3.83611C13.7177 3.88022 14.2175 3.96621 14.6114 4.11582C14.759 4.17185 14.8925 4.23719 15.0172 4.31359C15.4937 4.60562 15.8944 5.00629 16.1864 5.48284C16.3919 5.81821 16.5229 6.22585 16.6013 6.82201H12.0303C10.4299 6.82201 9.13255 8.11936 9.13255 9.71973C9.13255 11.3201 10.4299 12.6175 12.0303 12.6175H16.6828C16.6346 13.8344 16.5018 14.5025 16.1864 15.0172C15.8944 15.4938 15.4937 15.8944 15.0172 16.1865C14.6309 16.4232 14.1464 16.562 13.3849 16.6344C12.6141 16.7077 11.626 16.7084 10.25 16.7084H7.74998C6.37395 16.7084 5.38581 16.7077 4.61505 16.6344C3.85359 16.562 3.36907 16.4232 2.9828 16.1865C2.50624 15.8944 2.10557 15.4938 1.81354 15.0172C1.57684 14.6309 1.43799 14.1464 1.36559 13.385C1.2923 12.6142 1.29164 11.6261 1.29164 10.25C1.29164 8.87399 1.2923 7.88586 1.36559 7.1151C1.43799 6.35364 1.57684 5.86911 1.81354 5.48284C2.10557 5.00629 2.50624 4.60562 2.9828 4.31359ZM10.3826 9.71973C10.3826 8.80972 11.1203 8.07201 12.0303 8.07201H16.6896C16.7082 8.67528 16.7083 9.38704 16.7083 10.25C16.7083 10.6533 16.7083 11.0242 16.7064 11.3675H12.0303C11.1203 11.3675 10.3826 10.6297 10.3826 9.71973Z" fill="#F1FCF3"/>
</g>
</g>
</svg>
