<svg width="30" height="29" viewBox="0 0 30 29" fill="none" xmlns="http://www.w3.org/2000/svg">
<path fill-rule="evenodd" clip-rule="evenodd" d="M26.8351 3.83794H3.93194C3.86088 3.83794 3.80327 3.89555 3.80327 3.96661V10.4644C3.80327 10.5355 3.86088 10.5931 3.93194 10.5931H28.8939C29.2492 10.5931 29.5372 10.8811 29.5372 11.2364V12.9C29.5372 13.0706 29.4694 13.2343 29.3488 13.3549L14.2301 28.4736C13.9788 28.7249 13.5715 28.7249 13.3202 28.4736L12.3 27.4534C12.0488 27.2022 12.0488 26.7948 12.3 26.5436L25.4575 13.3861C25.5385 13.3051 25.4811 13.1665 25.3665 13.1665H1.55155C1.19624 13.1665 0.908203 12.8785 0.908203 12.5231V1.58622C0.908203 1.23091 1.19624 0.942871 1.55155 0.942871H29.2155C29.5708 0.942871 29.8589 1.23091 29.8589 1.58622V7.88714C29.8589 8.24246 29.5708 8.53049 29.2155 8.53049H7.34169C6.98638 8.53049 6.69834 8.24246 6.69834 7.88714V6.27877C6.69834 5.92346 6.98638 5.63542 7.34169 5.63542H26.8351C26.9062 5.63542 26.9638 5.57782 26.9638 5.50675V3.96661C26.9638 3.89555 26.9062 3.83794 26.8351 3.83794ZM6.05729 21.171L4.6435 19.7572C4.5194 19.6331 4.51768 19.4324 4.63962 19.3062L8.47051 15.3412C8.53112 15.2785 8.61461 15.2431 8.70185 15.2431H11.4529C11.7364 15.2431 11.8813 15.5832 11.6849 15.7876L6.5167 21.1664C6.39187 21.2963 6.18469 21.2984 6.05729 21.171ZM8.3254 23.4699L9.73914 24.8836C9.86586 25.0103 10.0717 25.009 10.1968 24.8808L19.0661 15.7894C19.2649 15.5856 19.1206 15.2431 18.8359 15.2431H16.0913C16.005 15.2431 15.9223 15.2778 15.8618 15.3394L8.32333 23.017C8.19966 23.143 8.20059 23.345 8.3254 23.4699Z" fill="url(#paint0_linear_231_57)"/>
<defs>
<linearGradient id="paint0_linear_231_57" x1="0.908203" y1="0.942871" x2="23.1022" y2="20.6869" gradientUnits="userSpaceOnUse">
<stop stop-color="#B1B0FF"/>
<stop offset="1" stop-color="#AFFF7E"/>
</linearGradient>
</defs>
</svg>
